<svg width="27" height="21" viewBox="0 0 27 21" fill="none" xmlns="http://www.w3.org/2000/svg">
<path fill-rule="evenodd" clip-rule="evenodd" d="M15.7338 19.7808C15.3487 19.4095 15.3375 18.7962 15.7089 18.4111L22.8451 11.0106L1.875 11.0106C1.33998 11.0106 0.906251 10.5769 0.906251 10.0418C0.906251 9.5068 1.33998 9.07308 1.875 9.07308L22.8451 9.07308L15.7089 1.67261C15.3375 1.28747 15.3487 0.674193 15.7338 0.302812C16.1189 -0.068568 16.7322 -0.0574175 17.1036 0.327719L25.8223 9.36939C26.1842 9.74466 26.1842 10.339 25.8223 10.7143L17.1036 19.7559C16.7322 20.1411 16.1189 20.1522 15.7338 19.7808Z" fill="url(#paint0_linear_1074_37)"/>
<defs>
<linearGradient id="paint0_linear_1074_37" x1="-40.3733" y1="46.6424" x2="24.9561" y2="-23.7451" gradientUnits="userSpaceOnUse">
<stop offset="0.429" stop-color="#36FBFF"/>
<stop offset="0.884" stop-color="#5DFF5C"/>
</linearGradient>
</defs>
</svg>
