<svg width="294" height="271" viewBox="0 0 294 271" fill="none" xmlns="http://www.w3.org/2000/svg">
<mask id="mask0_117_1707" style="mask-type:alpha" maskUnits="userSpaceOnUse" x="1" y="1" width="293" height="270">
<rect x="0.957031" y="2.23535" width="291" height="268" rx="20" transform="rotate(-0.250955 0.957031 2.23535)" fill="#D9D9D9"/>
</mask>
<g mask="url(#mask0_117_1707)">
<g opacity="0.8">
<path opacity="0.0344828" d="M119.829 17.514C121.93 17.9129 123.844 19.2268 125.558 21.4388C127.276 23.654 128.773 26.7467 130.035 30.6423C132.559 38.433 134.108 49.3391 134.638 62.594C135.696 89.0961 132.674 124.881 125.312 163.661C117.95 202.441 107.648 236.844 96.9509 261.114C91.6008 273.253 86.1624 282.832 80.9594 289.156C78.3577 292.318 75.8307 294.647 73.4212 296.079C71.0151 297.509 68.7529 298.03 66.6518 297.631C64.5508 297.232 62.6369 295.918 60.9222 293.706C59.2051 291.491 57.7072 288.398 56.4454 284.503C53.9219 276.712 52.3725 265.806 51.843 252.551C50.7845 226.049 53.8068 190.264 61.1687 151.484C68.5307 112.704 78.8327 78.3012 89.5298 54.0308C94.8799 41.8921 100.318 32.3125 105.521 25.9886C108.123 22.8265 110.65 20.4979 113.06 19.0661C115.466 17.6363 117.728 17.1151 119.829 17.514Z" stroke="#C6C6C6" stroke-width="0.945941"/>
<path opacity="0.0689655" d="M132.93 19.8078C134.988 20.3882 136.78 21.8639 138.296 24.217C139.813 26.5735 141.036 29.7849 141.953 33.7757C143.788 41.7567 144.381 52.7563 143.754 66.0069C142.498 92.5004 136.369 127.886 125.655 165.876C114.941 203.867 101.68 237.241 88.908 260.487C82.5203 272.113 76.2677 281.182 70.5333 287.029C67.6659 289.952 64.9455 292.052 62.4204 293.268C59.8989 294.483 57.5999 294.805 55.5416 294.224C53.4833 293.644 51.6912 292.168 50.1758 289.815C48.6583 287.458 47.4357 284.247 46.5182 280.256C44.6833 272.275 44.0903 261.276 44.7181 248.025C45.9734 221.531 52.1031 186.146 62.8169 148.155C73.5307 110.165 86.7919 76.7906 99.5636 53.5449C105.951 41.9186 112.204 32.8495 117.938 27.0031C120.806 24.0798 123.526 21.9803 126.051 20.7639C128.573 19.5493 130.872 19.2273 132.93 19.8078Z" stroke="#C6C6C6" stroke-width="0.945941"/>
<path opacity="0.103448" d="M145.738 23.1417C147.738 23.8993 149.394 25.5256 150.699 28.0018C152.005 30.4815 152.943 33.7874 153.509 37.8429C154.642 45.9534 154.274 56.9629 152.494 70.1084C148.934 96.3916 139.744 131.108 125.759 168.02C111.775 204.933 95.6558 237.024 80.9067 259.068C73.5299 270.094 66.5107 278.583 60.2886 283.908C57.1774 286.57 54.2843 288.424 51.6628 289.416C49.0451 290.406 46.7267 290.527 44.7268 289.769C42.727 289.011 41.0703 287.385 39.7658 284.909C38.4594 282.429 37.5213 279.123 36.9551 275.068C35.8228 266.957 36.1908 255.948 37.9711 242.802C41.5306 216.519 50.721 181.803 64.7052 144.89C78.6893 107.978 94.8088 75.8864 109.558 53.8423C116.935 42.8171 123.954 34.3274 130.176 29.0031C133.287 26.3407 136.18 24.4863 138.802 23.4947C141.42 22.5044 143.738 22.384 145.738 23.1417Z" stroke="#C6C6C6" stroke-width="0.945941"/>
<path opacity="0.137931" d="M158.161 27.494C160.087 28.4231 161.596 30.1876 162.679 32.7681C163.765 35.3522 164.411 38.7272 164.622 42.8167C165.043 50.995 163.717 61.9305 160.798 74.8708C154.961 100.744 142.78 134.527 125.632 170.08C108.483 205.633 89.6283 236.198 73.0141 256.872C64.7045 267.213 56.9721 275.058 50.3096 279.82C46.9782 282.201 43.9345 283.796 41.2366 284.556C38.5425 285.314 36.2224 285.232 34.2962 284.303C32.37 283.374 30.8614 281.609 29.7776 279.029C28.6924 276.445 28.046 273.07 27.8354 268.98C27.4142 260.802 28.7403 249.867 31.6595 236.926C37.4963 211.053 49.6775 177.27 66.8255 141.717C83.9736 106.164 102.829 75.5993 119.443 54.9246C127.753 44.5842 135.485 36.7386 142.147 31.9768C145.479 29.5958 148.523 28.0006 151.22 27.2412C153.915 26.4828 156.235 26.565 158.161 27.494Z" stroke="#C6C6C6" stroke-width="0.945941"/>
<path opacity="0.172414" d="M170.116 32.8226C171.954 33.916 173.303 35.8052 174.157 38.4703C175.013 41.1392 175.363 44.5577 175.217 48.65C174.923 56.8339 172.649 67.6122 168.613 80.2488C160.544 105.515 145.464 138.108 125.283 172.031C105.102 205.954 83.6544 234.759 65.3014 253.907C56.1222 263.484 47.7354 270.626 40.6833 274.789C37.157 276.87 33.9859 278.194 31.232 278.716C28.4821 279.236 26.178 278.952 24.3401 277.859C22.5022 276.765 21.1531 274.876 20.2984 272.211C19.4425 269.542 19.0927 266.124 19.2393 262.031C19.5326 253.847 21.8067 243.069 25.8427 230.432C33.9122 205.167 48.9914 172.574 69.1729 138.65C89.3543 104.727 110.802 75.9223 129.155 56.7742C138.334 47.1974 146.72 40.0556 153.773 35.8926C157.299 33.811 160.47 32.4871 163.224 31.9658C165.974 31.4451 168.278 31.7291 170.116 32.8226Z" stroke="#C6C6C6" stroke-width="0.945941"/>
<path opacity="0.206897" d="M181.512 39.0835C183.248 40.333 184.427 42.3326 185.046 45.0621C185.667 47.7954 185.717 51.2314 185.214 55.2953C184.209 63.4225 181.004 73.9616 175.882 86.1984C165.641 110.665 147.779 141.82 124.717 173.855C101.656 205.89 77.78 232.716 57.828 250.192C47.8491 258.932 38.8718 265.316 31.4837 268.848C27.7894 270.614 24.515 271.657 21.7261 271.936C18.9413 272.215 16.6707 271.732 14.9351 270.482C13.1995 269.233 12.0202 267.233 11.401 264.504C10.781 261.77 10.7304 258.334 11.2332 254.27C12.2386 246.143 15.4435 235.604 20.5654 223.367C30.8063 198.901 48.6688 167.746 71.7301 135.711C94.7913 103.676 118.667 76.8497 138.619 59.3741C148.598 50.6337 157.576 44.25 164.964 40.7175C168.658 38.9512 171.933 37.9087 174.721 37.6293C177.506 37.3503 179.777 37.8341 181.512 39.0835Z" stroke="#C6C6C6" stroke-width="0.945941"/>
<path opacity="0.241379" d="M192.274 46.223C193.895 47.6189 194.895 49.7137 195.274 52.4868C195.653 55.2638 195.404 58.6911 194.549 62.6957C192.839 70.7044 188.728 80.924 182.559 92.6678C170.225 116.149 149.715 145.628 123.949 175.531C98.1839 205.435 72.0606 230.078 50.6614 245.748C39.9587 253.585 30.4592 259.162 22.7913 262.037C18.9571 263.475 15.6043 264.228 12.8017 264.263C10.0031 264.299 7.78343 263.619 6.16329 262.223C4.54315 260.827 3.54264 258.732 3.16371 255.959C2.78424 253.182 3.03338 249.755 3.88839 245.75C5.5983 237.741 9.70954 227.522 15.8785 215.778C28.2128 192.297 48.7227 162.818 74.4882 132.914C100.254 103.011 126.377 78.3681 147.776 62.6979C158.479 54.8605 167.978 49.2836 175.646 46.4084C179.481 44.9708 182.833 44.2177 185.636 44.1824C188.435 44.1472 190.654 44.827 192.274 46.223Z" stroke="#C6C6C6" stroke-width="0.945941"/>
<path opacity="0.275862" d="M202.329 54.1902C203.821 55.7221 204.635 57.8961 204.771 60.6916C204.907 63.4911 204.36 66.8836 203.16 70.7985C200.758 78.6277 195.772 88.4502 188.603 99.6116C174.269 121.928 151.268 149.508 122.994 177.052C94.7204 204.596 66.5487 226.868 43.8652 240.613C32.5202 247.488 22.5707 252.216 14.6814 254.412C10.7365 255.51 7.33083 255.968 4.53586 255.759C1.74484 255.55 -0.40717 254.679 -1.89948 253.147C-3.39179 251.616 -4.20592 249.442 -4.34172 246.646C-4.47771 243.847 -3.93082 240.454 -2.73004 236.539C-0.328618 228.71 4.65767 218.888 11.8267 207.726C26.1605 185.41 49.1617 157.83 77.4354 130.286C105.709 102.742 133.881 80.4697 156.564 66.7242C167.909 59.8495 177.859 55.1216 185.748 52.9257C189.693 51.8277 193.099 51.3697 195.894 51.5788C198.685 51.7877 200.837 52.6584 202.329 54.1902Z" stroke="#C6C6C6" stroke-width="0.945941"/>
<path opacity="0.310345" d="M211.608 62.9077C212.961 64.5638 213.583 66.8005 213.474 69.5972C213.366 72.3979 212.525 75.7299 210.988 79.5251C207.913 87.1153 202.09 96.4658 193.975 106.96C177.751 127.942 152.434 153.412 121.867 178.387C91.3001 203.362 61.2945 223.094 37.4993 234.811C25.5982 240.67 15.2746 244.513 7.2239 246.013C3.19832 246.763 -0.234307 246.922 -3.00042 246.47C-5.76261 246.019 -7.83055 244.964 -9.18367 243.308C-10.5368 241.652 -11.1583 239.415 -11.05 236.619C-10.9415 233.818 -10.101 230.486 -8.56356 226.691C-5.48892 219.101 0.334478 209.75 8.449 199.256C24.6733 178.274 49.9906 152.804 80.5574 127.829C111.124 102.854 141.13 83.1215 164.925 71.4053C176.826 65.5455 187.15 61.7029 195.2 60.2029C199.226 59.4529 202.659 59.2934 205.425 59.7454C208.187 60.1967 210.255 61.2516 211.608 62.9077Z" stroke="#C6C6C6" stroke-width="0.945941"/>
<path opacity="0.344828" d="M220.048 72.314C221.252 74.0817 221.676 76.3641 221.324 79.1407C220.972 81.9213 219.844 85.1673 217.982 88.8142C214.258 96.1074 207.641 104.915 198.643 114.662C180.652 134.15 153.211 157.317 120.584 179.533C87.9567 201.748 56.3455 218.79 31.6197 228.388C19.2532 233.188 8.63397 236.117 0.483187 236.909C-3.59245 237.306 -7.02591 237.165 -9.74211 236.474C-12.4545 235.784 -14.4226 234.552 -15.6262 232.785C-16.8299 231.017 -17.2541 228.735 -16.9024 225.958C-16.5502 223.177 -15.4225 219.931 -13.5602 216.285C-9.8357 208.991 -3.21951 200.184 5.77876 190.437C23.77 170.949 51.2109 147.782 83.8381 125.566C116.465 103.35 148.076 86.3083 172.802 76.7106C185.169 71.9103 195.788 68.9821 203.939 68.1895C208.014 67.7932 211.448 67.9335 214.164 68.6248C216.876 69.3151 218.845 70.5463 220.048 72.314Z" stroke="#C6C6C6" stroke-width="0.945941"/>
<path opacity="0.37931" d="M227.585 82.33C228.63 84.1959 228.854 86.5066 228.261 89.242C227.668 91.9813 226.262 95.1167 224.089 98.5873C219.743 105.528 212.384 113.725 202.571 122.651C182.949 140.497 153.594 161.184 119.155 180.472C84.7153 199.759 51.7391 213.981 26.2709 221.388C13.5331 225.092 2.69903 227.083 -5.48981 227.163C-9.58448 227.202 -12.9926 226.763 -15.6383 225.838C-18.2801 224.914 -20.1334 223.516 -21.1784 221.65C-22.2234 219.784 -22.4471 217.473 -21.8548 214.738C-21.2616 211.998 -19.8553 208.863 -17.6822 205.392C-13.3362 198.452 -5.97759 190.254 3.83594 181.329C23.4572 163.483 52.8128 142.796 87.2521 123.508C121.691 104.22 154.668 89.9984 180.136 82.5921C192.874 78.888 203.708 76.8964 211.896 76.8172C215.991 76.7776 219.399 77.2166 222.045 78.142C224.687 79.0661 226.54 80.4641 227.585 82.33Z" stroke="#C6C6C6" stroke-width="0.945941"/>
<path opacity="0.413793" d="M234.185 92.8806C235.063 94.8304 235.084 97.1518 234.256 99.8252C233.426 102.502 231.752 105.503 229.285 108.771C224.35 115.307 216.305 122.832 205.751 130.868C184.649 146.936 153.602 164.986 117.613 181.198C81.6237 197.411 47.5334 208.705 21.5167 213.863C8.50454 216.443 -2.46189 217.483 -10.6265 216.848C-14.709 216.531 -18.0659 215.796 -20.6208 214.644C-23.1721 213.493 -24.8965 211.939 -25.7749 209.989C-26.6533 208.039 -26.6748 205.718 -25.8463 203.044C-25.0166 200.367 -23.3423 197.366 -20.875 194.098C-15.9407 187.563 -7.89563 180.038 2.65848 172.001C23.7605 155.933 54.8074 137.884 90.7966 121.671C126.786 105.458 160.876 94.1645 186.893 89.0062C199.905 86.4263 210.871 85.3865 219.036 86.0214C223.119 86.3388 226.476 87.0732 229.03 88.2257C231.582 89.3765 233.306 90.9307 234.185 92.8806Z" stroke="#C6C6C6" stroke-width="0.945941"/>
<path opacity="0.448276" d="M239.785 103.872C240.49 105.891 240.309 108.206 239.25 110.797C238.191 113.391 236.261 116.235 233.518 119.276C228.033 125.356 219.363 132.151 208.149 139.237C185.726 153.405 153.225 168.68 115.959 181.694C78.6939 194.709 43.749 202.988 17.3817 205.86C4.19422 207.296 -6.8211 207.376 -14.8993 206.032C-18.9386 205.36 -22.2188 204.335 -24.6635 202.965C-27.1048 201.596 -28.6872 199.897 -29.3923 197.878C-30.0974 195.859 -29.9164 193.545 -28.8581 190.954C-27.7982 188.359 -25.8688 185.516 -23.1261 182.475C-17.6409 176.394 -8.9706 169.599 2.24376 162.513C24.6659 148.346 57.1678 133.071 94.4331 120.056C131.698 107.042 166.643 98.7622 193.011 95.891C206.198 94.455 217.213 94.375 225.292 95.719C229.331 96.391 232.611 97.4152 235.056 98.786C237.497 100.155 239.08 101.853 239.785 103.872Z" stroke="#C6C6C6" stroke-width="0.945941"/>
<path opacity="0.482759" d="M244.367 115.222C244.893 117.295 244.511 119.584 243.231 122.073C241.949 124.566 239.779 127.23 236.782 130.02C230.788 135.6 221.558 141.613 209.769 147.695C186.197 159.854 152.488 172.239 114.23 181.956C75.9722 191.672 40.4387 196.875 13.9215 197.437C0.658968 197.718 -10.3214 196.838 -18.2517 194.795C-22.2171 193.774 -25.3955 192.467 -27.7115 190.889C-30.0241 189.312 -31.4525 187.482 -31.9789 185.41C-32.5054 183.337 -32.1234 181.047 -30.8433 178.558C-29.5613 176.066 -27.3914 173.401 -24.3941 170.611C-18.3998 165.032 -9.17031 159.018 2.61896 152.937C26.1906 140.777 59.9001 128.393 98.1579 118.676C136.416 108.959 171.949 103.756 198.466 103.194C211.729 102.913 222.709 103.793 230.64 105.836C234.605 106.858 237.783 108.164 240.099 109.743C242.412 111.319 243.84 113.149 244.367 115.222Z" stroke="#C6C6C6" stroke-width="0.945941"/>
<path opacity="0.517241" d="M247.897 126.839C248.241 128.95 247.661 131.198 246.169 133.566C244.675 135.937 242.281 138.402 239.052 140.921C232.594 145.957 222.875 151.143 210.601 156.174C186.059 166.232 151.399 175.632 112.44 181.977C73.4805 188.323 37.6288 190.408 11.1635 188.657C-2.07302 187.782 -12.9349 185.948 -20.657 183.221C-24.5182 181.858 -27.5707 180.28 -29.7403 178.505C-31.9067 176.733 -33.1702 174.786 -33.514 172.675C-33.8577 170.564 -33.2777 168.316 -31.7855 165.949C-30.2911 163.577 -27.8973 161.112 -24.6682 158.594C-18.2104 153.558 -8.49196 148.372 3.7825 143.341C28.3242 133.282 62.9848 123.883 101.944 117.537C140.903 111.192 176.755 109.106 203.22 110.857C216.457 111.733 227.318 113.567 235.04 116.293C238.902 117.657 241.954 119.235 244.124 121.009C246.29 122.781 247.554 124.729 247.897 126.839Z" stroke="#C6C6C6" stroke-width="0.945941"/>
<path opacity="0.551724" d="M250.352 138.636C250.51 140.769 249.736 142.957 248.044 145.186C246.348 147.418 243.749 149.665 240.312 151.893C233.44 156.346 223.307 160.666 210.641 164.608C185.316 172.489 149.968 178.832 110.604 181.758C71.2399 184.684 35.3428 183.637 9.13084 179.586C-3.97899 177.56 -14.6397 174.786 -22.0948 171.397C-25.8225 169.703 -28.7258 167.864 -30.7325 165.907C-32.7363 163.953 -33.8251 161.903 -33.9837 159.771C-34.1422 157.638 -33.3684 155.449 -31.6755 153.22C-29.9802 150.988 -27.3806 148.741 -23.9443 146.514C-17.0722 142.06 -6.93873 137.741 5.7275 133.799C31.0525 125.917 66.4004 119.575 105.764 116.649C145.128 113.723 181.025 114.77 207.237 118.821C220.347 120.847 231.008 123.62 238.463 127.009C242.191 128.704 245.094 130.542 247.101 132.499C249.104 134.453 250.193 136.503 250.352 138.636Z" stroke="#C6C6C6" stroke-width="0.945941"/>
<path opacity="0.586207" d="M251.729 150.508C251.701 152.647 250.74 154.76 248.859 156.832C246.975 158.908 244.19 160.92 240.573 162.839C233.338 166.677 222.867 170.097 209.905 172.92C183.99 178.565 148.224 181.802 108.755 181.286C69.2856 180.77 33.6163 176.599 7.85715 170.279C-5.02621 167.118 -15.4046 163.425 -22.5359 159.399C-26.1018 157.386 -28.8338 155.302 -30.6623 153.178C-32.4882 151.057 -33.3942 148.919 -33.3663 146.781C-33.3383 144.642 -32.3767 142.53 -30.496 140.457C-28.6126 138.381 -25.827 136.369 -22.2097 134.45C-14.9756 130.612 -4.50423 127.192 8.45737 124.369C34.373 118.724 70.1391 115.487 109.608 116.003C149.077 116.519 184.747 120.69 210.506 127.011C223.389 130.172 233.767 133.864 240.899 137.89C244.465 139.903 247.197 141.987 249.025 144.111C250.851 146.232 251.757 148.37 251.729 150.508Z" stroke="#C6C6C6" stroke-width="0.945941"/>
<path opacity="0.62069" d="M252.022 162.368C251.808 164.495 250.666 166.517 248.612 168.418C246.555 170.321 243.604 172.083 239.834 173.679C232.292 176.872 221.563 179.366 208.405 181.049C182.096 184.413 146.183 184.521 106.91 180.567C67.6356 176.613 32.4657 169.349 7.35535 160.808C-5.20349 156.536 -15.2206 151.953 -21.9739 147.321C-25.3508 145.005 -27.8907 142.691 -29.5271 140.415C-31.1612 138.143 -31.8775 135.935 -31.6632 133.807C-31.449 131.679 -30.3069 129.658 -28.2527 127.757C-26.1956 125.853 -23.2452 124.092 -19.4744 122.495C-11.9333 119.302 -1.20375 116.808 11.9546 115.125C38.2635 111.761 74.1757 111.653 113.45 115.607C152.724 119.561 187.893 126.825 213.004 135.367C225.563 139.638 235.58 144.221 242.333 148.853C245.71 151.169 248.25 153.484 249.886 155.759C251.52 158.032 252.237 160.24 252.022 162.368Z" stroke="#C6C6C6" stroke-width="0.945941"/>
<path opacity="0.655172" d="M251.233 174.116C250.834 176.217 249.52 178.131 247.308 179.846C245.093 181.563 242 183.061 238.105 184.322C230.314 186.846 219.408 188.395 206.153 188.925C179.651 189.983 143.866 186.961 105.086 179.599C66.3063 172.237 31.9033 161.935 7.63296 151.238C-4.50578 145.888 -14.0853 140.45 -20.4092 135.246C-23.5714 132.645 -25.9 130.118 -27.3318 127.708C-28.7616 125.302 -29.2827 123.04 -28.8839 120.939C-28.485 118.838 -27.1711 116.924 -24.959 115.209C-22.7438 113.492 -19.6511 111.994 -15.7555 110.732C-7.96483 108.209 2.94127 106.66 16.1962 106.13C42.6982 105.072 78.4831 108.094 117.263 115.456C156.043 122.818 190.446 133.12 214.716 143.817C226.855 149.167 236.435 154.605 242.758 159.808C245.921 162.41 248.249 164.937 249.681 167.347C251.111 169.753 251.632 172.015 251.233 174.116Z" stroke="#C6C6C6" stroke-width="0.945941"/>
<path opacity="0.689655" d="M249.379 185.663C248.798 187.722 247.323 189.514 244.969 191.029C242.613 192.547 239.402 193.769 235.411 194.687C227.43 196.522 216.43 197.115 203.18 196.487C176.686 195.232 141.301 189.102 103.31 178.388C65.3194 167.674 31.9452 154.413 8.69956 141.641C-2.92669 135.254 -11.9958 129.001 -17.8422 123.267C-20.7655 120.399 -22.865 117.679 -24.0814 115.154C-25.2961 112.632 -25.618 110.333 -25.0376 108.275C-24.4571 106.217 -22.9814 104.425 -20.6283 102.909C-18.2719 101.392 -15.0604 100.169 -11.0697 99.2516C-3.08865 97.4167 7.91099 96.8237 21.1616 97.4515C47.6551 98.7068 83.0404 104.836 121.031 115.55C159.022 126.264 192.396 139.525 215.642 152.297C227.268 158.685 236.337 164.937 242.183 170.672C245.107 173.539 247.206 176.26 248.423 178.785C249.637 181.306 249.959 183.605 249.379 185.663Z" stroke="#C6C6C6" stroke-width="0.945941"/>
<path opacity="0.724138" d="M246.481 196.917C245.724 198.917 244.097 200.574 241.621 201.878C239.141 203.185 235.836 204.123 231.78 204.689C223.67 205.821 212.66 205.454 199.515 203.673C173.231 200.114 138.515 190.923 101.603 176.939C64.6903 162.955 32.5989 146.835 10.5548 132.086C-0.470472 124.71 -8.96013 117.69 -14.2845 111.468C-16.9468 108.357 -18.8012 105.464 -19.7929 102.843C-20.7831 100.225 -20.9035 97.9064 -20.1459 95.9065C-19.3882 93.9066 -17.7619 92.25 -15.2857 90.9455C-12.806 89.6391 -9.50018 88.701 -5.44466 88.1348C2.6659 87.0025 13.6754 87.3704 26.8208 89.1507C53.1041 92.7103 87.8205 101.901 124.733 115.885C161.645 129.869 193.737 145.989 215.781 160.738C226.806 168.114 235.296 175.134 240.62 181.356C243.282 184.467 245.137 187.36 246.128 189.981C247.119 192.599 247.239 194.918 246.481 196.917Z" stroke="#C6C6C6" stroke-width="0.945941"/>
<path opacity="0.758621" d="M242.567 207.787C241.637 209.713 239.873 211.222 237.292 212.305C234.708 213.391 231.333 214.037 227.244 214.248C219.066 214.669 208.13 213.343 195.19 210.423C169.317 204.587 135.533 192.406 99.9803 175.258C64.4272 158.109 33.8629 139.254 13.1881 122.64C2.84771 114.33 -4.99787 106.598 -9.75966 99.9356C-12.1407 96.6041 -13.7359 93.5605 -14.4953 90.8626C-15.2537 88.1684 -15.1715 85.8484 -14.2424 83.9222C-13.3134 81.9959 -11.5489 80.4873 -8.96841 79.4036C-6.38426 78.3183 -3.00928 77.6719 1.08016 77.4613C9.25855 77.0402 20.194 78.3663 33.1343 81.2855C59.0073 87.1223 92.7907 99.3035 128.344 116.451C163.897 133.6 194.461 152.455 215.136 169.069C225.476 177.379 233.322 185.111 238.084 191.773C240.465 195.105 242.06 198.149 242.819 200.846C243.578 203.541 243.496 205.861 242.567 207.787Z" stroke="#C6C6C6" stroke-width="0.945941"/>
<path opacity="0.793103" d="M237.678 218.184C236.585 220.022 234.696 221.371 232.031 222.226C229.362 223.082 225.943 223.432 221.851 223.285C213.667 222.992 202.889 220.718 190.252 216.682C164.986 208.612 132.393 193.533 98.4699 173.351C64.5467 153.17 35.742 131.723 16.5939 113.37C7.01709 104.191 -0.124714 95.8038 -4.28771 88.7516C-6.36933 85.2254 -7.69319 82.0543 -8.21457 79.3004C-8.73522 76.5504 -8.45118 74.2464 -7.35777 72.4085C-6.26436 70.5705 -4.37511 69.2215 -1.70999 68.3668C0.958911 67.5108 4.37739 67.1611 8.46962 67.3077C16.6536 67.6009 27.4319 69.8751 40.0685 73.911C65.3343 81.9805 97.9275 97.0598 131.851 117.241C165.774 137.423 194.579 158.87 213.727 177.223C223.304 186.402 230.445 194.789 234.608 201.841C236.69 205.367 238.014 208.538 238.535 211.292C239.056 214.042 238.772 216.346 237.678 218.184Z" stroke="#C6C6C6" stroke-width="0.945941"/>
<path opacity="0.827586" d="M231.86 228.028C230.61 229.764 228.611 230.943 225.881 231.562C223.148 232.182 219.712 232.233 215.648 231.73C207.521 230.725 196.982 227.52 184.745 222.398C160.279 212.157 129.124 194.294 97.0885 171.233C65.0533 148.172 38.2274 124.296 20.7518 104.344C12.0114 94.3648 5.62776 85.3874 2.09524 77.9993C0.328873 74.305 -0.713567 71.0306 -0.992953 68.2418C-1.27194 65.4569 -0.788176 63.1864 0.461262 61.4507C1.7107 59.7151 3.71034 58.5358 6.43981 57.9166C9.17315 57.2966 12.6091 57.2461 16.673 57.7488C24.8003 58.7542 35.3393 61.9591 47.5761 67.081C72.0425 77.3219 103.197 95.1844 135.233 118.246C167.268 141.307 194.094 165.183 211.569 185.135C220.31 195.114 226.693 204.091 230.226 211.479C231.992 215.174 233.035 218.448 233.314 221.237C233.593 224.022 233.109 226.292 231.86 228.028Z" stroke="#C6C6C6" stroke-width="0.945941"/>
<path opacity="0.862069" d="M225.151 237.237C223.755 238.857 221.66 239.858 218.887 240.237C216.11 240.616 212.683 240.367 208.678 239.512C200.67 237.802 190.45 233.691 178.706 227.522C155.225 215.188 125.746 194.678 95.8426 168.912C65.9392 143.147 41.2963 117.023 25.6261 95.6243C17.7888 84.9216 12.2118 75.4221 9.33665 67.7542C7.89898 63.92 7.14589 60.5672 7.11063 57.7646C7.07542 54.966 7.75523 52.7463 9.15119 51.1262C10.5471 49.506 12.642 48.5055 15.415 48.1266C18.192 47.7471 21.6193 47.9963 25.6239 48.8513C33.6326 50.5612 43.8522 54.6724 55.596 60.8414C79.0768 73.1757 108.556 93.6856 138.46 119.451C168.363 145.217 193.006 171.34 208.676 192.739C216.513 203.442 222.09 212.941 224.966 220.609C226.403 224.443 227.156 227.796 227.192 230.599C227.227 233.397 226.547 235.617 225.151 237.237Z" stroke="#C6C6C6" stroke-width="0.945941"/>
<path opacity="0.896552" d="M217.624 245.735C216.092 247.228 213.918 248.042 211.123 248.178C208.323 248.314 204.931 247.767 201.016 246.566C193.187 244.164 183.364 239.178 172.203 232.009C149.886 217.675 122.307 194.674 94.7627 166.4C67.2187 138.127 44.9465 109.955 31.201 87.2715C24.3262 75.9264 19.5984 65.977 17.4025 58.0876C16.3045 54.1428 15.8465 50.7371 16.0556 47.9421C16.2644 45.1511 17.1351 42.9991 18.667 41.5068C20.1988 40.0145 22.3729 39.2003 25.1684 39.0645C27.9679 38.9285 31.3604 39.4754 35.2752 40.6762C43.1045 43.0776 52.9269 48.0639 64.0884 55.2329C86.4047 69.5668 113.984 92.5679 141.528 120.842C169.072 149.115 191.345 177.287 205.09 199.971C211.965 211.316 216.693 221.265 218.889 229.154C219.987 233.099 220.445 236.505 220.236 239.3C220.027 242.091 219.156 244.243 217.624 245.735Z" stroke="#C6C6C6" stroke-width="0.945941"/>
<path opacity="0.931035" d="M209.347 253.46C207.691 254.813 205.454 255.434 202.658 255.326C199.857 255.217 196.525 254.377 192.73 252.839C185.14 249.765 175.789 243.941 165.295 235.827C144.313 219.603 118.843 194.285 93.8677 163.718C68.8927 133.152 49.1605 103.146 37.4444 79.3509C31.5845 67.4498 27.7419 57.1262 26.2419 49.0755C25.4919 45.0499 25.3325 41.6173 25.7844 38.8511C26.2357 36.089 27.2906 34.021 28.9467 32.6679C30.6028 31.3148 32.8395 30.6932 35.6362 30.8016C38.4369 30.9101 41.7689 31.7506 45.5642 33.288C53.1543 36.3626 62.5048 42.186 72.9989 50.3006C93.9811 66.5248 119.451 91.8422 144.426 122.409C169.401 152.976 189.133 182.981 200.85 206.777C206.709 218.678 210.552 229.001 212.052 237.052C212.802 241.078 212.961 244.51 212.51 247.276C212.058 250.038 211.003 252.106 209.347 253.46Z" stroke="#C6C6C6" stroke-width="0.945941"/>
<path opacity="0.965517" d="M200.378 260.344C198.611 261.548 196.328 261.972 193.552 261.62C190.771 261.268 187.525 260.14 183.878 258.278C176.585 254.554 167.778 247.937 158.031 238.939C138.542 220.948 115.376 193.507 93.1598 160.88C70.9439 128.253 53.902 96.6414 44.3043 71.9156C39.504 59.5491 36.5757 48.9299 35.7831 40.7791C35.3868 36.7035 35.5272 33.27 36.2185 30.5538C36.9088 27.8414 38.1399 25.8733 39.9076 24.6697C41.6754 23.466 43.9577 23.0418 46.7344 23.3935C49.5149 23.7457 52.761 24.8734 56.4078 26.7357C63.7011 30.4602 72.5085 37.0764 82.2555 46.0747C101.744 64.0659 124.91 91.5068 147.126 124.134C169.342 156.761 186.384 188.372 195.982 213.098C200.782 225.465 203.71 236.084 204.503 244.235C204.899 248.31 204.759 251.744 204.068 254.46C203.377 257.172 202.146 259.14 200.378 260.344Z" stroke="#C6C6C6" stroke-width="0.945941"/>
<path d="M190.797 266.332C188.931 267.377 186.62 267.601 183.885 267.008C181.146 266.415 178.01 265.009 174.54 262.836C167.599 258.49 159.401 251.131 150.476 241.318C132.63 221.696 111.943 192.341 92.6552 157.902C73.3675 123.462 59.1456 90.4861 51.7393 65.018C48.0352 52.2802 46.0436 41.4461 45.9644 33.2573C45.9248 29.1626 46.3638 25.7544 47.2892 23.1088C48.2133 20.467 49.6113 18.6136 51.4772 17.5686C53.3431 16.5236 55.6538 16.2999 58.3892 16.8923C61.1285 17.4855 64.2639 18.8918 67.7345 21.0649C74.6754 25.4109 82.8727 32.7695 91.7983 42.583C109.644 62.2043 130.331 91.5599 149.619 125.999C168.907 160.438 183.129 193.415 190.535 218.883C194.239 231.621 196.231 242.455 196.31 250.644C196.349 254.738 195.91 258.146 194.985 260.792C194.061 263.434 192.663 265.287 190.797 266.332Z" stroke="#C6C6C6" stroke-width="0.945941"/>
</g>
</g>
</svg>
