<svg width="562" height="516" viewBox="0 0 562 516" fill="none" xmlns="http://www.w3.org/2000/svg">
<mask id="mask0_117_2159" style="mask-type:alpha" maskUnits="userSpaceOnUse" x="0" y="0" width="562" height="516">
<rect x="0.5" y="0.5" width="561" height="515" fill="white" stroke="#E0E0E0"/>
</mask>
<g mask="url(#mask0_117_2159)">
<g opacity="0.4">
<path opacity="0.0344828" d="M92.8161 378.118L235.638 353.12L236.313 353.002L236.216 352.323L215.857 208.767L308.917 319.955L309.357 320.48L309.896 320.058L424.04 230.648L374.278 366.834L374.043 367.478L374.679 367.733L509.182 421.88L366.36 446.878L365.686 446.996L365.782 447.675L386.141 591.231L293.081 480.043L292.641 479.518L292.102 479.94L177.958 569.35L227.72 433.164L227.955 432.52L227.319 432.265L92.8161 378.118Z" stroke="#C9C9C9" stroke-width="1.4151"/>
<path opacity="0.0689655" d="M96.8238 367.659L238.958 350.388L239.638 350.306L239.578 349.623L226.92 207.004L312.944 321.461L313.355 322.008L313.916 321.615L431.099 239.343L374.989 371.07L374.72 371.701L375.341 371.989L505.182 432.337L363.048 449.607L362.368 449.69L362.428 450.372L375.086 592.992L289.062 478.535L288.651 477.987L288.09 478.381L170.907 560.653L227.017 428.925L227.286 428.295L226.665 428.006L96.8238 367.659Z" stroke="#C9C9C9" stroke-width="1.4151"/>
<path opacity="0.103448" d="M101.34 357.562L242.375 347.878L243.058 347.831L243.034 347.146L237.923 205.872L316.827 323.169L317.209 323.738L317.789 323.374L437.581 248.311L375.45 375.292L375.149 375.908L375.755 376.228L500.657 442.439L359.623 452.123L358.939 452.17L358.964 452.855L364.075 594.129L285.171 476.832L284.789 476.263L284.208 476.627L164.417 551.69L226.547 424.709L226.848 424.093L226.243 423.773L101.34 357.562Z" stroke="#C9C9C9" stroke-width="1.4151"/>
<path opacity="0.137931" d="M106.352 347.844L245.888 345.584L246.572 345.573L246.584 344.888L248.844 205.353L320.569 325.064L320.921 325.651L321.52 325.318L443.491 257.508L375.681 379.48L375.348 380.078L375.935 380.43L495.646 452.155L356.111 454.416L355.426 454.427L355.415 455.112L353.155 594.647L281.43 474.936L281.078 474.348L280.479 474.681L158.508 542.491L226.318 420.52L226.651 419.921L226.063 419.569L106.352 347.844Z" stroke="#C9C9C9" stroke-width="1.4151"/>
<path opacity="0.172414" d="M111.828 338.533L249.478 343.513L250.163 343.538L250.21 342.855L259.646 205.438L324.158 327.136L324.479 327.742L325.094 327.441L448.818 266.904L375.68 383.622L375.317 384.203L375.885 384.585L490.174 461.465L352.523 456.485L351.839 456.46L351.792 457.144L342.356 594.561L277.844 472.862L277.523 472.257L276.908 472.558L153.183 533.095L226.321 416.376L226.685 415.795L226.117 415.413L111.828 338.533Z" stroke="#C9C9C9" stroke-width="1.4151"/>
<path opacity="0.206897" d="M117.734 329.651L253.129 341.668L253.811 341.729L253.894 341.049L270.29 206.114L327.581 329.378L327.869 329.999L328.499 329.731L453.554 276.462L375.45 387.709L375.056 388.27L375.604 388.682L484.263 470.348L348.868 458.331L348.186 458.271L348.103 458.951L331.707 593.885L274.416 470.622L274.128 470L273.498 470.269L148.443 523.537L226.547 412.29L226.941 411.729L226.393 411.318L117.734 329.651Z" stroke="#C9C9C9" stroke-width="1.4151"/>
<path opacity="0.241379" d="M124.047 321.216L256.832 340.048L257.511 340.144L257.629 339.469L280.751 207.364L330.835 331.775L331.091 332.41L331.734 332.175L457.703 286.147L375.001 391.727L374.579 392.266L375.104 392.706L477.949 478.783L345.164 459.951L344.486 459.855L344.368 460.53L321.245 592.636L271.161 468.224L270.906 467.589L270.262 467.824L144.294 513.852L226.995 408.272L227.418 407.733L226.893 407.294L124.047 321.216Z" stroke="#C9C9C9" stroke-width="1.4151"/>
<path opacity="0.275862" d="M130.733 313.246L260.572 338.653L261.244 338.785L261.397 338.117L290.996 209.17L333.912 334.317L334.134 334.965L334.789 334.764L461.26 295.924L374.338 395.663L373.888 396.18L374.389 396.646L471.261 486.754L341.423 461.346L340.751 461.215L340.598 461.882L310.998 590.83L268.082 465.683L267.86 465.035L267.205 465.236L140.734 504.076L227.657 404.336L228.107 403.82L227.605 403.353L130.733 313.246Z" stroke="#C9C9C9" stroke-width="1.4151"/>
<path opacity="0.310345" d="M137.765 305.756L264.337 337.483L265.001 337.649L265.189 336.991L300.999 211.513L336.809 336.991L336.997 337.649L337.661 337.483L464.233 305.756L373.471 399.507L372.994 399.999L373.471 400.491L464.233 494.242L337.661 462.515L336.997 462.349L336.809 463.008L300.999 588.485L265.189 463.008L265.001 462.349L264.337 462.515L137.765 494.242L228.527 400.491L229.004 399.999L228.527 399.507L137.765 305.756Z" stroke="#C9C9C9" stroke-width="1.4151"/>
<path opacity="0.344828" d="M145.105 298.76L268.11 336.535L268.765 336.737L268.987 336.089L310.726 214.372L339.514 339.785L339.668 340.452L340.34 340.321L466.619 315.61L372.403 403.248L371.901 403.714L372.351 404.23L456.891 501.236L333.886 463.461L333.232 463.26L333.009 463.908L291.27 585.624L262.482 460.212L262.329 459.544L261.656 459.676L135.377 484.386L229.594 396.749L230.095 396.282L229.645 395.766L145.105 298.76Z" stroke="#C9C9C9" stroke-width="1.4151"/>
<path opacity="0.37931" d="M152.726 292.273L271.882 335.812L272.526 336.047L272.782 335.411L320.157 217.728L342.029 342.69L342.147 343.364L342.825 343.268L468.43 325.455L371.146 406.877L370.621 407.317L371.043 407.856L449.272 507.726L330.116 464.187L329.473 463.952L329.217 464.588L281.842 582.271L259.97 457.309L259.851 456.635L259.173 456.731L133.569 474.544L230.853 393.122L231.378 392.682L230.955 392.143L152.726 292.273Z" stroke="#C9C9C9" stroke-width="1.4151"/>
<path opacity="0.413793" d="M160.595 286.302L275.641 335.306L276.271 335.575L276.56 334.954L329.265 221.555L344.349 345.69L344.431 346.37L345.114 346.31L469.672 335.255L369.71 410.385L369.162 410.797L369.556 411.357L441.409 513.7L326.363 464.696L325.733 464.427L325.444 465.048L272.739 578.447L257.655 454.312L257.573 453.632L256.89 453.692L132.332 464.747L232.294 389.617L232.842 389.206L232.448 388.645L160.595 286.302Z" stroke="#C9C9C9" stroke-width="1.4151"/>
<path opacity="0.448276" d="M168.673 280.851L279.367 335.012L279.983 335.313L280.303 334.708L338.022 225.826L346.464 348.771L346.511 349.454L347.195 349.43L470.35 344.974L368.097 413.758L367.529 414.14L367.892 414.72L433.328 519.147L322.633 464.986L322.018 464.685L321.697 465.29L263.979 574.172L255.537 451.227L255.49 450.544L254.805 450.568L131.651 455.024L233.904 386.24L234.472 385.858L234.108 385.278L168.673 280.851Z" stroke="#C9C9C9" stroke-width="1.4151"/>
<path opacity="0.482759" d="M176.933 275.931L283.057 334.93L283.656 335.263L284.008 334.676L346.414 230.518L348.381 351.924L348.392 352.609L349.077 352.62L470.482 354.587L366.325 416.993L365.738 417.345L366.07 417.944L425.07 524.067L318.946 465.068L318.348 464.735L317.996 465.322L255.59 569.48L253.623 448.074L253.612 447.389L252.927 447.378L131.521 445.411L235.678 383.005L236.266 382.653L235.933 382.054L176.933 275.931Z" stroke="#C9C9C9" stroke-width="1.4151"/>
<path opacity="0.517241" d="M185.339 271.545L286.693 335.055L287.273 335.419L287.656 334.85L354.415 235.606L350.091 355.137L350.066 355.821L350.75 355.868L470.077 364.062L364.399 420.082L363.793 420.403L364.094 421.018L416.662 528.455L315.308 464.945L314.728 464.582L314.345 465.15L247.586 564.394L251.91 444.863L251.935 444.179L251.252 444.132L131.924 435.938L237.603 379.918L238.208 379.597L237.907 378.982L185.339 271.545Z" stroke="#C9C9C9" stroke-width="1.4151"/>
<path opacity="0.551724" d="M193.86 267.692L290.267 335.377L290.828 335.771L291.239 335.223L362.012 241.059L351.598 358.393L351.538 359.075L352.218 359.158L469.153 373.367L362.332 423.015L361.71 423.304L361.979 423.934L408.141 532.307L311.734 464.621L311.173 464.228L310.762 464.775L239.989 558.94L250.403 441.606L250.463 440.923L249.784 440.841L132.848 426.632L239.67 376.984L240.291 376.695L240.022 376.065L193.86 267.692Z" stroke="#C9C9C9" stroke-width="1.4151"/>
<path opacity="0.586207" d="M202.462 264.373L293.767 335.894L294.306 336.316L294.746 335.791L369.186 246.85L352.9 361.683L352.804 362.361L353.479 362.479L467.724 382.476L360.133 425.788L359.498 426.044L359.733 426.687L399.538 535.625L308.232 464.105L307.693 463.682L307.253 464.208L232.813 553.149L249.099 438.316L249.195 437.637L248.52 437.519L134.275 417.523L241.866 374.21L242.502 373.954L242.267 373.311L202.462 264.373Z" stroke="#C9C9C9" stroke-width="1.4151"/>
<path opacity="0.62069" d="M211.111 261.588L297.182 336.598L297.698 337.048L298.165 336.546L375.923 252.951L353.998 364.995L353.866 365.667L354.534 365.82L465.809 391.363L357.813 428.397L357.165 428.619L357.366 429.274L390.883 538.412L304.813 463.403L304.296 462.952L303.83 463.454L226.072 547.05L247.997 435.006L248.129 434.333L247.461 434.18L136.186 408.638L244.181 371.603L244.829 371.381L244.628 370.726L211.111 261.588Z" stroke="#C9C9C9" stroke-width="1.4151"/>
<path opacity="0.655172" d="M219.782 259.328L300.506 337.479L300.998 337.955L301.49 337.479L382.214 259.328L354.896 368.312L354.729 368.977L355.388 369.165L463.43 399.999L355.388 430.832L354.729 431.02L354.896 431.685L382.214 540.669L301.49 462.519L300.998 462.042L300.506 462.519L219.782 540.669L247.1 431.685L247.267 431.02L246.608 430.832L138.566 399.999L246.608 369.165L247.267 368.977L247.1 368.312L219.782 259.328Z" stroke="#C9C9C9" stroke-width="1.4151"/>
<path opacity="0.689655" d="M228.441 257.584L303.729 338.524L304.196 339.025L304.712 338.575L388.048 265.948L355.596 371.62L355.395 372.275L356.043 372.497L460.608 408.355L352.868 433.086L352.2 433.239L352.331 433.912L373.56 542.397L298.272 461.456L297.805 460.955L297.289 461.405L213.953 534.032L246.405 428.36L246.606 427.706L245.958 427.483L141.393 391.625L249.133 366.894L249.801 366.741L249.669 366.069L228.441 257.584Z" stroke="#C9C9C9" stroke-width="1.4151"/>
<path opacity="0.724138" d="M237.052 256.362L306.838 339.741L307.277 340.267L307.816 339.844L393.412 272.796L356.096 374.921L355.861 375.565L356.497 375.821L457.36 416.425L350.259 435.171L349.584 435.289L349.68 435.967L364.947 543.619L295.162 460.24L294.723 459.715L294.183 460.137L208.588 527.185L245.904 425.06L246.139 424.417L245.503 424.161L144.64 383.557L251.741 364.81L252.416 364.692L252.32 364.014L237.052 256.362Z" stroke="#C9C9C9" stroke-width="1.4151"/>
<path opacity="0.758621" d="M245.591 255.644L309.828 341.112L310.239 341.659L310.8 341.266L398.304 279.831L356.404 378.196L356.136 378.826L356.757 379.115L453.713 424.178L347.577 437.074L346.897 437.157L346.958 437.839L356.41 544.337L292.174 458.869L291.762 458.321L291.201 458.715L203.698 520.149L245.597 421.785L245.865 421.155L245.244 420.866L148.288 375.803L254.424 362.907L255.104 362.824L255.043 362.142L245.591 255.644Z" stroke="#C9C9C9" stroke-width="1.4151"/>
<path opacity="0.793103" d="M349.819 299.223L408.483 386.431L408.865 386.999L409.445 386.635L498.508 330.827L452.315 425.235L452.014 425.851L452.619 426.171L545.482 475.398L440.625 482.598L439.942 482.645L439.967 483.329L443.767 588.363L385.103 501.155L384.721 500.587L384.141 500.951L295.078 556.759L341.271 462.351L341.572 461.735L340.967 461.415L248.104 412.188L352.961 404.988L353.644 404.941L353.619 404.257L349.819 299.223Z" stroke="#C9C9C9" stroke-width="1.4151"/>
<path opacity="0.827586" d="M262.331 255.677L315.418 344.28L315.77 344.868L316.369 344.535L406.645 294.346L356.456 384.622L356.123 385.221L356.711 385.573L445.314 438.66L342.038 440.333L341.353 440.344L341.342 441.029L339.669 544.305L286.582 455.701L286.23 455.114L285.631 455.447L195.355 505.636L245.544 415.36L245.877 414.761L245.289 414.409L156.686 361.322L259.962 359.649L260.647 359.638L260.658 358.953L262.331 255.677Z" stroke="#C9C9C9" stroke-width="1.4151"/>
<path opacity="0.862069" d="M270.478 256.398L318.006 346.056L318.326 346.662L318.942 346.361L410.092 301.762L356.21 387.751L355.846 388.332L356.414 388.714L440.614 445.353L339.203 441.684L338.519 441.66L338.472 442.343L331.52 543.581L283.993 453.923L283.672 453.318L283.056 453.619L191.906 498.218L245.788 412.228L246.152 411.648L245.584 411.265L161.384 354.626L262.795 358.295L263.479 358.32L263.526 357.636L270.478 256.398Z" stroke="#C9C9C9" stroke-width="1.4151"/>
<path opacity="0.896552" d="M278.443 257.57L320.449 347.948L320.738 348.569L321.368 348.301L413.06 309.244L355.793 390.812L355.399 391.372L355.947 391.784L435.617 451.663L336.343 442.852L335.661 442.792L335.578 443.472L323.557 542.407L281.551 452.029L281.262 451.408L280.632 451.676L188.94 490.733L246.207 409.165L246.601 408.604L246.053 408.193L166.383 348.314L265.656 357.125L266.339 357.185L266.421 356.505L278.443 257.57Z" stroke="#C9C9C9" stroke-width="1.4151"/>
<path opacity="0.931035" d="M286.197 259.175L322.739 349.946L322.995 350.582L323.638 350.347L415.545 316.765L355.206 393.796L354.783 394.335L355.309 394.775L430.345 457.578L333.464 443.838L332.786 443.742L332.668 444.416L315.797 540.801L279.256 450.03L279 449.395L278.357 449.63L186.45 483.212L246.789 406.181L247.212 405.641L246.686 405.202L171.65 342.399L268.531 356.139L269.209 356.235L269.327 355.56L286.197 259.175Z" stroke="#C9C9C9" stroke-width="1.4151"/>
<path opacity="0.965517" d="M293.729 261.197L324.882 352.041L325.104 352.689L325.759 352.488L417.564 324.294L354.467 396.695L354.017 397.212L354.518 397.678L424.838 463.087L330.588 444.644L329.916 444.512L329.763 445.18L308.277 538.783L277.124 447.939L276.902 447.291L276.247 447.492L184.442 475.686L247.539 403.285L247.989 402.768L247.487 402.302L177.168 336.893L271.417 355.336L272.09 355.468L272.243 354.8L293.729 261.197Z" stroke="#C9C9C9" stroke-width="1.4151"/>
<path d="M301.003 263.61L326.861 354.217L327.049 354.876L327.713 354.709L419.11 331.799L353.571 399.496L353.095 399.988L353.571 400.48L419.11 468.177L327.713 445.268L327.049 445.101L326.861 445.76L301.003 536.366L275.145 445.76L274.957 445.101L274.293 445.268L182.896 468.177L248.435 400.48L248.911 399.988L248.435 399.496L182.896 331.799L274.293 354.709L274.957 354.876L275.145 354.217L301.003 263.61Z" stroke="#C9C9C9" stroke-width="1.4151"/>
</g>
</g>
</svg>

