<svg width="291" height="268" viewBox="0 0 291 268" fill="none" xmlns="http://www.w3.org/2000/svg">
<mask id="mask0_117_1707" style="mask-type:alpha" maskUnits="userSpaceOnUse" x="0" y="0" width="291" height="268">
<rect width="291" height="268" rx="20" fill="#D9D9D9"/>
</mask>
<g mask="url(#mask0_117_1707)">
<g opacity="0.8">
<path opacity="0.0344828" d="M118.807 15.7987C120.907 16.2067 122.815 17.529 124.52 19.7486C126.227 21.9713 127.711 25.0705 128.956 28.9716C131.446 36.7733 132.947 47.6861 133.419 60.9431C134.361 87.4496 131.182 123.221 123.65 161.968C116.119 200.715 105.666 235.073 94.8626 259.296C89.4593 271.411 83.9791 280.967 78.7484 287.268C76.1329 290.419 73.5956 292.736 71.1799 294.158C68.7676 295.577 66.5032 296.088 64.4039 295.68C62.3046 295.272 60.3965 293.95 58.6915 291.73C56.9841 289.507 55.4998 286.408 54.255 282.507C51.7656 274.705 50.264 263.793 49.7926 250.536C48.8502 224.029 52.0292 188.258 59.5609 149.511C67.0926 110.763 77.5453 76.4057 88.3486 52.1824C93.7518 40.0673 99.2321 30.5116 104.463 24.2106C107.078 21.0598 109.616 18.7423 112.031 17.3211C114.444 15.9018 116.708 15.3906 118.807 15.7987Z" stroke="#C6C6C6" stroke-width="0.945941"/>
<path opacity="0.0689655" d="M131.898 18.1498C133.954 18.7393 135.74 20.2228 137.245 22.5825C138.752 24.9456 139.96 28.1624 140.86 32.1571C142.66 40.146 143.205 51.1482 142.519 64.3959C141.148 90.8836 134.863 126.242 123.983 164.185C113.103 202.129 99.6959 235.444 86.8225 258.634C80.3839 270.232 74.0916 279.274 68.3317 285.095C65.4515 288.006 62.722 290.093 60.1916 291.299C57.6648 292.502 55.3643 292.814 53.3086 292.225C51.2529 291.635 49.4673 290.152 47.9622 287.792C46.455 285.429 45.2465 282.212 44.3464 278.217C42.5465 270.228 42.0017 259.226 42.6876 245.978C44.0589 219.491 50.3435 184.133 61.2236 146.189C72.1037 108.246 85.511 74.93 98.3844 51.7404C104.823 40.1423 111.115 31.1006 116.875 25.2794C119.755 22.3687 122.485 20.2811 125.015 19.0758C127.542 17.8722 129.843 17.5603 131.898 18.1498Z" stroke="#C6C6C6" stroke-width="0.945941"/>
<path opacity="0.103448" d="M144.691 21.5403C146.687 22.3067 148.337 23.9402 149.631 26.4221C150.926 28.9076 151.85 32.2174 152.398 36.2754C153.495 44.3908 153.079 55.3986 151.241 68.5361C147.566 94.8035 138.224 129.479 124.078 166.33C109.932 203.181 93.6725 235.201 78.827 257.181C71.402 268.174 64.3457 276.632 58.1003 281.929C54.9774 284.578 52.0763 286.42 49.4505 287.4C46.8284 288.379 44.5096 288.489 42.513 287.723C40.5165 286.956 38.867 285.323 37.5733 282.841C36.2778 280.355 35.3542 277.045 34.8058 272.987C33.709 264.872 34.1252 253.864 35.963 240.727C39.6377 214.459 48.98 179.783 63.1257 142.933C77.2714 106.082 93.5313 74.0615 108.377 52.0822C115.802 41.0894 122.858 32.6305 129.104 27.3335C132.226 24.6848 135.128 22.8431 137.753 21.8629C140.375 20.8841 142.694 20.7739 144.691 21.5403Z" stroke="#C6C6C6" stroke-width="0.945941"/>
<path opacity="0.137931" d="M157.094 25.9468C159.016 26.8843 160.517 28.6554 161.59 31.2406C162.664 33.8295 163.295 37.2073 163.488 41.2976C163.873 49.4777 162.499 60.4073 159.523 73.3347C153.573 99.1818 141.244 132.912 123.941 168.389C106.637 203.867 87.6482 234.348 70.9435 254.95C62.5887 265.254 54.822 273.066 48.1387 277.798C44.7969 280.165 41.7463 281.746 39.0451 282.494C36.3476 283.241 34.028 283.148 32.1059 282.211C30.1837 281.273 28.6829 279.502 27.6104 276.917C26.5365 274.328 25.9049 270.95 25.7122 266.86C25.3269 258.68 26.7009 247.75 29.6767 234.823C35.6267 208.976 47.9558 175.246 65.2594 139.768C82.563 104.291 101.552 73.8093 118.256 53.2075C126.611 42.9036 134.378 35.092 141.061 30.3594C144.403 27.993 147.454 26.4111 150.155 25.6635C152.852 24.917 155.172 25.0093 157.094 25.9468Z" stroke="#C6C6C6" stroke-width="0.945941"/>
<path opacity="0.172414" d="M169.025 31.3272C170.858 32.4287 172.199 34.3238 173.042 36.9927C173.886 39.6653 174.221 43.0853 174.057 47.1768C173.727 55.3594 171.406 66.1277 167.315 78.7465C159.135 103.977 143.913 136.504 123.583 170.338C103.253 204.173 81.6801 232.883 63.2434 251.951C54.0224 261.487 45.6044 268.592 38.5341 272.724C34.9987 274.79 31.8218 276.1 29.0657 276.61C26.3135 277.118 24.0107 276.824 22.1776 275.723C20.3445 274.621 19.0037 272.726 18.1607 270.057C17.3165 267.385 16.9816 263.965 17.1462 259.873C17.4753 251.69 19.7966 240.922 23.8879 228.303C32.068 203.073 47.2898 170.546 67.6197 136.712C87.9495 102.877 109.523 74.1668 127.959 55.0993C137.18 45.5628 145.598 38.4578 152.669 34.3257C156.204 32.2595 159.381 30.9496 162.137 30.4403C164.889 29.9317 167.192 30.2258 169.025 31.3272Z" stroke="#C6C6C6" stroke-width="0.945941"/>
<path opacity="0.206897" d="M180.394 37.6382C182.124 38.8952 183.295 40.9 183.902 43.6322C184.51 46.3682 184.546 49.8044 184.025 53.866C182.984 61.9888 179.733 72.5137 174.558 84.7279C164.21 109.149 146.211 140.226 123.009 172.159C99.8081 204.093 75.8146 230.814 55.7863 248.202C45.7692 256.899 36.764 263.243 29.3605 266.743C25.6585 268.494 22.3795 269.522 19.5895 269.789C16.8034 270.056 14.5351 269.562 12.8049 268.305C11.0748 267.048 9.90425 265.043 9.29704 262.311C8.68897 259.575 8.65349 256.139 9.17402 252.077C10.215 243.954 13.466 233.429 18.6415 221.215C28.9894 196.794 46.9883 165.718 70.1896 133.784C93.391 101.85 117.384 75.1287 137.413 57.7407C147.43 49.0441 156.435 42.6998 163.839 39.1997C167.541 37.4495 170.819 36.4214 173.61 36.1543C176.396 35.8875 178.664 36.3812 180.394 37.6382Z" stroke="#C6C6C6" stroke-width="0.945941"/>
<path opacity="0.241379" d="M191.125 44.8251C192.739 46.2281 193.731 48.3273 194.097 51.102C194.465 53.8806 194.201 57.3067 193.328 61.3076C191.583 69.3087 187.427 79.5103 181.207 91.2269C168.77 114.653 148.131 144.043 122.235 173.833C96.3384 203.623 70.1074 228.151 48.6398 243.728C37.9029 251.518 28.379 257.054 20.6986 259.895C16.8581 261.316 13.5021 262.054 10.6994 262.077C7.90065 262.1 5.68394 261.411 4.06993 260.008C2.45592 258.605 1.46459 256.505 1.09782 253.731C0.730519 250.952 0.99466 247.526 1.8672 243.525C3.61218 235.524 7.76814 225.323 13.9885 213.606C26.4255 190.179 47.0643 160.79 72.9606 131C98.8569 101.209 125.088 76.6813 146.555 61.105C157.292 53.3145 166.816 47.7792 174.497 44.9377C178.337 43.5168 181.693 42.7784 184.496 42.7554C187.295 42.7325 189.511 43.422 191.125 44.8251Z" stroke="#C6C6C6" stroke-width="0.945941"/>
<path opacity="0.275862" d="M201.143 52.8366C202.628 54.3749 203.433 56.5525 203.556 59.3486C203.68 62.1487 203.118 65.5388 201.901 69.4483C199.465 77.2669 194.436 87.0675 187.218 98.1974C172.786 120.451 149.665 147.93 121.27 175.349C92.8763 202.769 64.6074 224.918 41.8639 238.564C30.4888 245.389 20.5188 250.073 12.6199 252.235C8.67023 253.315 5.26259 253.758 2.46855 253.537C-0.321519 253.316 -2.4697 252.436 -3.95528 250.897C-5.44087 249.359 -6.24547 247.181 -6.36902 244.385C-6.49275 241.585 -5.931 238.195 -4.71309 234.286C-2.2774 226.467 2.75186 216.667 9.96969 205.537C24.4011 183.283 47.5229 155.804 75.917 128.385C104.311 100.965 132.58 78.816 155.324 65.17C166.699 58.345 176.669 53.6608 184.568 51.4995C188.517 50.4188 191.925 49.9757 194.719 50.197C197.509 50.4181 199.657 51.2982 201.143 52.8366Z" stroke="#C6C6C6" stroke-width="0.945941"/>
<path opacity="0.310345" d="M210.386 61.5946C211.732 63.2566 212.344 65.496 212.223 68.2922C212.103 71.0924 211.247 74.4207 209.693 78.2092C206.586 85.7858 200.721 95.1107 192.561 105.569C176.245 126.48 150.816 151.839 120.14 176.68C89.4644 201.521 59.3727 221.121 35.5264 232.733C23.5998 238.541 13.2594 242.338 5.20224 243.803C1.17341 244.535 -2.25988 244.68 -5.02399 244.216C-7.78417 243.752 -9.84747 242.688 -11.1933 241.026C-12.5392 239.364 -13.1509 237.125 -13.0303 234.329C-12.9095 231.528 -12.0545 228.2 -10.5004 224.412C-7.39258 216.835 -1.52829 207.51 6.63212 197.052C22.9481 176.141 48.3768 150.782 79.0527 125.941C109.729 101.1 139.82 81.4996 163.667 69.8877C175.593 64.0801 185.934 60.2827 193.991 58.818C198.02 58.0856 201.453 57.9412 204.217 58.4052C206.977 58.8686 209.041 59.9326 210.386 61.5946Z" stroke="#C6C6C6" stroke-width="0.945941"/>
<path opacity="0.344828" d="M218.782 71.0373C219.978 72.8103 220.392 75.0945 220.028 77.8696C219.664 80.6486 218.522 83.8896 216.644 87.5283C212.888 94.8052 206.233 103.583 197.192 113.291C179.116 132.7 151.573 155.747 118.849 177.819C86.1251 199.892 54.4395 216.795 29.672 226.285C17.2846 231.031 6.65257 233.912 -1.5016 234.669C-5.57894 235.048 -9.01175 234.892 -11.7249 234.189C-14.4342 233.487 -16.3969 232.247 -17.5928 230.474C-18.7887 228.701 -19.2029 226.417 -18.8391 223.642C-18.4747 220.863 -17.3328 217.622 -15.4545 213.983C-11.6981 206.706 -5.04341 197.928 3.99746 188.221C22.0739 168.811 49.616 145.765 82.3402 123.692C115.064 101.62 146.75 84.7163 171.517 75.227C183.905 70.4809 194.537 67.5992 202.691 66.8423C206.768 66.4638 210.201 66.6192 212.914 67.3224C215.624 68.0246 217.586 69.2643 218.782 71.0373Z" stroke="#C6C6C6" stroke-width="0.945941"/>
<path opacity="0.37931" d="M226.278 81.0861C227.315 82.9566 227.529 85.2682 226.924 88.001C226.319 90.7377 224.899 93.8669 222.711 97.328C218.334 104.25 210.94 112.415 201.087 121.297C181.388 139.057 151.942 159.615 117.419 178.752C82.8954 197.889 49.8572 211.966 24.3568 219.261C11.6029 222.909 0.760238 224.853 -7.42887 224.896C-11.5237 224.918 -14.9299 224.464 -17.5714 223.527C-20.2092 222.591 -22.0564 221.185 -23.0932 219.315C-24.13 217.444 -24.3436 215.133 -23.7393 212.4C-23.1341 209.663 -21.714 206.534 -19.5257 203.073C-15.1494 196.151 -7.75499 187.986 2.09754 179.104C21.7968 161.344 51.2427 140.786 85.7662 121.649C120.29 102.512 153.328 88.435 178.828 81.1404C191.582 77.4921 202.425 75.5479 210.614 75.5046C214.709 75.483 218.115 75.9369 220.756 76.8739C223.394 77.8096 225.241 79.2157 226.278 81.0861Z" stroke="#C6C6C6" stroke-width="0.945941"/>
<path opacity="0.413793" d="M232.829 91.6655C233.699 93.6192 233.71 95.9406 232.87 98.6103C232.029 101.284 230.341 104.277 227.86 107.535C222.897 114.049 214.819 121.538 204.23 129.528C183.057 145.504 151.932 163.417 115.872 179.472C79.8119 195.527 45.6725 206.671 19.6334 211.716C6.61003 214.238 -4.36085 215.23 -12.5226 214.56C-16.6037 214.224 -19.9574 213.475 -22.5072 212.312C-25.0534 211.15 -26.771 209.588 -27.6408 207.634C-28.5107 205.68 -28.522 203.359 -27.6818 200.689C-26.8403 198.016 -25.153 195.022 -22.6714 191.765C-17.7085 185.251 -9.63053 177.762 0.958684 169.772C22.1309 153.796 53.2565 135.883 89.3164 119.828C125.376 103.773 159.516 92.6284 185.555 87.584C198.578 85.0611 209.549 84.0694 217.711 84.74C221.792 85.0753 225.146 85.8244 227.695 86.988C230.242 88.15 231.959 89.7118 232.829 91.6655Z" stroke="#C6C6C6" stroke-width="0.945941"/>
<path opacity="0.448276" d="M238.382 102.682C239.078 104.704 238.887 107.018 237.817 109.604C236.746 112.194 234.804 115.029 232.048 118.057C226.536 124.114 217.836 130.871 206.591 137.908C184.107 151.977 151.539 167.11 114.217 179.961C76.8946 192.812 41.9138 200.938 15.5342 203.694C2.3405 205.072 -8.67507 205.104 -16.7473 203.725C-20.7836 203.035 -24.0593 201.996 -26.498 200.615C-28.9332 199.235 -30.5082 197.53 -31.2044 195.508C-31.9007 193.486 -31.7096 191.172 -30.6399 188.586C-29.5687 185.996 -27.6269 183.161 -24.8708 180.132C-19.359 174.075 -10.6591 167.319 0.586207 160.282C23.0702 146.212 55.6386 131.08 92.9606 118.229C130.283 105.378 165.263 97.2514 191.643 94.4957C204.837 93.1175 215.852 93.0857 223.924 94.4651C227.961 95.1548 231.236 96.1933 233.675 97.5748C236.11 98.9543 237.685 100.66 238.382 102.682Z" stroke="#C6C6C6" stroke-width="0.945941"/>
<path opacity="0.482759" d="M242.914 114.051C243.432 116.126 243.04 118.415 241.749 120.898C240.456 123.385 238.274 126.04 235.265 128.816C229.246 134.37 219.99 140.343 208.174 146.372C184.55 158.429 150.786 170.665 112.486 180.214C74.1864 189.764 38.6304 194.811 12.111 195.257C-1.15261 195.48 -12.129 194.551 -20.0503 192.474C-24.0112 191.435 -27.1838 190.115 -29.4929 188.526C-31.7986 186.939 -33.2189 185.103 -33.7363 183.028C-34.2537 180.953 -33.8617 178.665 -32.5706 176.182C-31.2778 173.695 -29.0962 171.04 -26.0867 168.263C-20.068 162.71 -10.8123 156.737 1.00351 150.707C24.6282 138.651 58.3916 126.414 96.6916 116.865C134.992 107.316 170.548 102.269 197.067 101.823C210.331 101.6 221.307 102.528 229.228 104.606C233.189 105.645 236.362 106.965 238.671 108.553C240.977 110.14 242.397 111.976 242.914 114.051Z" stroke="#C6C6C6" stroke-width="0.945941"/>
<path opacity="0.517241" d="M246.394 125.684C246.729 127.797 246.139 130.042 244.636 132.403C243.131 134.768 240.727 137.223 237.487 139.727C231.007 144.734 221.266 149.878 208.969 154.855C184.384 164.806 149.683 174.053 110.696 180.228C71.7095 186.403 35.849 188.332 9.3916 186.465C-3.84097 185.531 -14.6947 183.65 -22.4048 180.889C-26.26 179.509 -29.3055 177.918 -31.4673 176.134C-33.626 174.352 -34.8809 172.399 -35.2154 170.287C-35.55 168.175 -34.9601 165.93 -33.4575 163.568C-31.9528 161.204 -29.5482 158.749 -26.3081 156.245C-19.8283 151.237 -10.0872 146.094 2.20914 141.117C26.7947 131.165 61.4961 121.918 100.483 115.743C139.469 109.568 175.33 107.64 201.787 109.507C215.02 110.44 225.873 112.322 233.583 115.082C237.439 116.462 240.484 118.054 242.646 119.838C244.805 121.619 246.059 123.572 246.394 125.684Z" stroke="#C6C6C6" stroke-width="0.945941"/>
<path opacity="0.551724" d="M248.797 137.492C248.946 139.625 248.163 141.81 246.46 144.032C244.755 146.256 242.146 148.492 238.7 150.704C231.808 155.128 221.656 159.403 208.972 163.289C183.613 171.06 148.238 177.248 108.862 180.001C69.4852 182.755 33.5931 181.55 7.39911 177.385C-5.70172 175.301 -16.3502 172.481 -23.7903 169.059C-27.5106 167.348 -30.4058 165.497 -32.4039 163.532C-34.3991 161.569 -35.479 159.514 -35.6282 157.381C-35.7774 155.247 -34.994 153.062 -33.2914 150.841C-31.5863 148.616 -28.9769 146.38 -25.5309 144.168C-18.6393 139.744 -8.48703 135.47 4.19634 131.583C29.5556 123.812 64.9309 117.625 104.307 114.871C143.684 112.118 179.576 113.322 205.77 117.488C218.871 119.571 229.519 122.392 236.959 125.813C240.679 127.524 243.575 129.375 245.573 131.341C247.568 133.303 248.648 135.358 248.797 137.492Z" stroke="#C6C6C6" stroke-width="0.945941"/>
<path opacity="0.586207" d="M250.124 149.37C250.086 151.508 249.115 153.617 247.226 155.682C245.333 157.749 242.539 159.749 238.913 161.652C231.662 165.459 221.176 168.832 208.202 171.599C182.262 177.13 146.482 180.21 107.016 179.521C67.5492 178.833 31.8986 174.505 6.16736 168.072C-6.70203 164.855 -17.0641 161.117 -24.1778 157.06C-27.7348 155.031 -30.4577 152.935 -32.2768 150.803C-34.0934 148.674 -34.9901 146.532 -34.9527 144.394C-34.9154 142.256 -33.9446 140.147 -32.0548 138.083C-30.1623 136.015 -27.368 134.015 -23.7423 132.112C-16.4914 128.306 -6.00518 124.932 6.96866 122.166C32.9087 116.635 68.6887 113.554 108.155 114.243C147.622 114.931 183.272 119.259 209.004 125.692C221.873 128.909 232.235 132.647 239.349 136.704C242.906 138.733 245.629 140.829 247.448 142.961C249.264 145.09 250.161 147.232 250.124 149.37Z" stroke="#C6C6C6" stroke-width="0.945941"/>
<path opacity="0.62069" d="M250.363 161.23C250.14 163.357 248.989 165.373 246.926 167.265C244.861 169.159 241.903 170.908 238.125 172.488C230.57 175.648 219.83 178.095 206.664 179.72C180.341 182.969 144.428 182.92 105.172 178.794C65.9159 174.668 30.7782 167.25 5.70549 158.599C-6.83452 154.272 -16.8314 149.645 -23.5644 144.984C-26.9311 142.653 -29.4609 140.327 -31.0873 138.044C-32.7114 135.765 -33.418 133.554 -33.1945 131.427C-32.9709 129.3 -31.82 127.284 -29.7575 125.392C-27.692 123.497 -24.734 121.749 -20.9562 120.168C-13.4012 117.009 -2.66081 114.562 10.5048 112.937C36.8282 109.688 72.7405 109.737 111.997 113.863C151.253 117.989 186.391 125.407 211.463 134.058C224.003 138.385 234 143.012 240.733 147.673C244.1 150.004 246.63 152.33 248.256 154.612C249.88 156.892 250.587 159.103 250.363 161.23Z" stroke="#C6C6C6" stroke-width="0.945941"/>
<path opacity="0.655172" d="M249.523 172.975C249.115 175.075 247.792 176.983 245.573 178.688C243.35 180.395 240.251 181.879 236.35 183.124C228.548 185.614 217.635 187.115 204.378 187.586C177.872 188.529 142.1 185.35 103.353 177.818C64.6058 170.286 30.2483 159.834 6.02502 149.031C-6.09016 143.627 -15.6458 138.147 -21.9469 132.916C-25.0976 130.301 -27.4151 127.764 -28.8363 125.348C-30.2556 122.936 -30.7668 120.671 -30.3587 118.572C-29.9507 116.473 -28.6284 114.564 -26.4088 112.859C-24.1861 111.152 -21.0869 109.668 -17.1858 108.423C-9.38414 105.934 1.52864 104.432 14.7857 103.961C41.2922 103.018 77.0635 106.197 115.811 113.729C154.558 121.261 188.916 131.713 213.139 142.517C225.254 147.92 234.81 153.4 241.111 158.631C244.261 161.246 246.579 163.783 248 166.199C249.419 168.611 249.931 170.876 249.523 172.975Z" stroke="#C6C6C6" stroke-width="0.945941"/>
<path opacity="0.689655" d="M247.616 184.514C247.026 186.57 245.543 188.356 243.183 189.861C240.82 191.368 237.603 192.577 233.609 193.477C225.62 195.277 214.617 195.821 201.37 195.136C174.882 193.764 139.524 187.48 101.58 176.599C63.637 165.719 30.3213 152.312 7.13175 139.439C-4.46641 133 -13.5081 126.708 -19.3293 120.948C-22.24 118.068 -24.3276 115.338 -25.5329 112.808C-26.7365 110.281 -27.0484 107.981 -26.4589 105.925C-25.8694 103.869 -24.3859 102.083 -22.0262 100.578C-19.6631 99.0712 -16.4463 97.8627 -12.4516 96.9627C-4.46264 95.1627 6.53949 94.6179 19.7872 95.3038C46.2749 96.6751 81.6331 102.96 119.576 113.84C157.52 124.72 190.836 138.127 214.025 151.001C225.623 157.439 234.665 163.731 240.486 169.491C243.397 172.372 245.485 175.101 246.69 177.631C247.893 180.158 248.205 182.459 247.616 184.514Z" stroke="#C6C6C6" stroke-width="0.945941"/>
<path opacity="0.724138" d="M244.67 195.755C243.903 197.752 242.27 199.401 239.788 200.695C237.302 201.99 233.993 202.914 229.935 203.462C221.819 204.559 210.811 204.143 197.674 202.305C171.406 198.631 136.731 189.288 99.8798 175.143C63.0291 160.997 31.0086 144.737 9.02931 129.891C-1.96356 122.466 -10.4224 115.41 -15.7194 109.165C-18.3681 106.042 -20.2098 103.141 -21.19 100.515C-22.1688 97.8929 -22.279 95.574 -21.5126 93.5775C-20.7462 91.5809 -19.1127 89.9314 -16.6308 88.6378C-14.1453 87.3423 -10.8355 86.4187 -6.7775 85.8702C1.33794 84.7734 12.3457 85.1896 25.4832 87.0275C51.7506 90.7021 86.4265 100.045 123.277 114.19C160.128 128.336 192.148 144.596 214.128 159.441C225.121 166.866 233.579 173.923 238.876 180.168C241.525 183.291 243.367 186.192 244.347 188.818C245.326 191.44 245.436 193.759 244.67 195.755Z" stroke="#C6C6C6" stroke-width="0.945941"/>
<path opacity="0.758621" d="M240.71 206.608C239.773 208.53 238.002 210.031 235.417 211.103C232.828 212.177 229.45 212.809 225.36 213.001C217.18 213.387 206.25 212.013 193.323 209.037C167.475 203.087 133.746 190.758 98.2681 173.454C62.7904 156.151 32.3089 137.162 11.7072 120.457C1.40326 112.102 -6.40838 104.336 -11.1409 97.6524C-13.5074 94.3106 -15.0892 91.26 -15.8368 88.5587C-16.5833 85.8613 -16.491 83.5417 -15.5535 81.6195C-14.616 79.6974 -12.845 78.1965 -10.2598 77.1241C-7.6709 76.0502 -4.29311 75.4186 -0.20279 75.2259C7.97736 74.8405 18.9069 76.2145 31.8343 79.1904C57.6815 85.1404 91.4112 97.4695 126.889 114.773C162.366 132.077 192.848 151.065 213.45 167.77C223.754 176.125 231.565 183.892 236.298 190.575C238.664 193.917 240.246 196.967 240.994 199.669C241.74 202.366 241.648 204.686 240.71 206.608Z" stroke="#C6C6C6" stroke-width="0.945941"/>
<path opacity="0.793103" d="M235.775 216.983C234.674 218.816 232.779 220.157 230.11 221C227.437 221.844 224.017 222.179 219.926 222.015C211.743 221.685 200.975 219.364 188.356 215.273C163.126 207.093 130.599 191.871 96.7645 171.541C62.93 151.211 34.2195 129.638 15.152 111.201C5.61547 101.98 -1.48954 93.5624 -5.6216 86.4921C-7.68776 82.9567 -8.99771 79.7799 -9.50703 77.0237C-10.0156 74.2715 -9.7215 71.9687 -8.62005 70.1356C-7.5186 68.3025 -5.62346 66.9617 -2.95462 66.1187C-0.281998 65.2745 3.13798 64.9397 7.22953 65.1042C15.4121 65.4333 26.1804 67.7546 38.7992 71.8459C64.0294 80.026 96.5562 95.2478 130.391 115.578C164.225 135.907 192.936 157.481 212.003 175.917C221.54 185.138 228.645 193.556 232.777 200.627C234.843 204.162 236.153 207.339 236.662 210.095C237.171 212.847 236.877 215.15 235.775 216.983Z" stroke="#C6C6C6" stroke-width="0.945941"/>
<path opacity="0.827586" d="M229.912 226.801C228.655 228.532 226.65 229.702 223.918 230.309C221.182 230.917 217.745 230.953 213.684 230.432C205.561 229.391 195.036 226.14 182.822 220.965C158.401 210.617 127.324 192.618 95.3903 169.417C63.4564 146.215 36.7354 122.222 19.3473 102.194C10.6507 92.1764 4.30646 83.1712 0.806332 75.7677C-0.943836 72.0657 -1.97192 68.7868 -2.23909 65.9967C-2.50588 63.2107 -2.01218 60.9423 -0.755147 59.2121C0.501881 57.482 2.50667 56.3115 5.23882 55.7043C7.97485 55.0962 11.411 55.0607 15.4726 55.5812C23.5954 56.6222 34.1204 59.8733 46.3346 65.0487C70.7559 75.3967 101.832 93.3955 133.766 116.597C165.7 139.798 192.421 163.792 209.809 183.82C218.506 193.837 224.85 202.842 228.35 210.246C230.1 213.948 231.128 217.227 231.396 220.017C231.662 222.803 231.169 225.071 229.912 226.801Z" stroke="#C6C6C6" stroke-width="0.945941"/>
<path opacity="0.862069" d="M223.164 235.982C221.761 237.596 219.662 238.587 216.887 238.954C214.109 239.321 210.683 239.057 206.682 238.185C198.681 236.44 188.479 232.284 176.762 226.063C153.336 213.626 123.946 192.987 94.1562 167.091C64.3659 141.195 39.8378 114.964 24.2615 93.4963C16.471 82.7593 10.9357 73.2355 8.09418 65.555C6.67333 61.7146 5.93493 58.3585 5.91194 55.5558C5.88899 52.7571 6.57852 50.5404 7.98156 48.9264C9.38459 47.3124 11.4838 46.321 14.2584 45.9543C17.0371 45.587 20.4632 45.8511 24.464 46.7236C32.4652 48.4686 42.6668 52.6246 54.3834 58.8449C77.8099 71.2819 107.199 91.9207 136.99 117.817C166.78 143.713 191.308 169.944 206.884 191.412C214.675 202.149 220.21 211.673 223.052 219.353C224.472 223.194 225.211 226.55 225.234 229.352C225.257 232.151 224.567 234.368 223.164 235.982Z" stroke="#C6C6C6" stroke-width="0.945941"/>
<path opacity="0.896552" d="M215.602 244.446C214.064 245.932 211.886 246.737 209.09 246.86C206.29 246.984 202.9 246.422 198.99 245.204C191.172 242.769 181.371 237.739 170.241 230.521C147.988 216.09 120.509 192.968 93.089 164.574C65.6691 136.18 43.5205 107.911 29.8745 85.1676C23.0495 73.7925 18.3653 63.8225 16.204 55.9236C15.1232 51.9739 14.6801 48.5663 14.9015 45.7723C15.1226 42.9822 16.0027 40.834 17.5411 39.3484C19.0794 37.8628 21.257 37.0582 24.0531 36.9347C26.8532 36.811 30.2433 37.3727 34.1528 38.5906C41.9714 41.0263 51.7719 46.0556 62.9019 53.2734C85.1553 67.7048 112.634 90.8266 140.054 119.221C167.474 147.615 189.622 175.884 203.268 198.627C210.093 210.002 214.778 219.972 216.939 227.871C218.02 231.821 218.463 235.229 218.241 238.023C218.02 240.813 217.14 242.961 215.602 244.446Z" stroke="#C6C6C6" stroke-width="0.945941"/>
<path opacity="0.931035" d="M207.289 252.134C205.627 253.48 203.388 254.092 200.592 253.971C197.791 253.851 194.463 252.996 190.675 251.442C183.098 248.334 173.773 242.469 163.315 234.309C142.404 217.993 117.045 192.564 92.2039 161.888C67.363 131.212 47.7624 101.121 36.1506 77.2745C30.3429 65.3478 26.5455 55.0075 25.0809 46.9503C24.3485 42.9215 24.2041 39.4882 24.6681 36.7241C25.1315 33.9639 26.1955 31.9006 27.8575 30.5547C29.5195 29.2089 31.7589 28.5971 34.5551 28.7177C37.3553 28.8385 40.6835 29.6936 44.4721 31.2476C52.0486 34.3555 61.3735 40.2198 71.8321 48.3802C92.743 64.6962 118.102 90.1249 142.943 120.801C167.784 151.477 187.384 181.568 198.996 205.415C204.804 217.341 208.601 227.682 210.066 235.739C210.798 239.768 210.943 243.201 210.479 245.965C210.015 248.725 208.951 250.789 207.289 252.134Z" stroke="#C6C6C6" stroke-width="0.945941"/>
<path opacity="0.965517" d="M198.289 258.979C196.516 260.175 194.232 260.59 191.457 260.226C188.678 259.861 185.437 258.719 181.798 256.841C174.521 253.085 165.743 246.43 156.035 237.389C136.626 219.313 113.58 191.771 91.5069 159.047C69.4342 126.322 52.5309 94.6368 43.0415 69.8692C38.2955 57.4818 35.4137 46.8498 34.6569 38.6957C34.2784 34.6183 34.4338 31.1855 35.137 28.4724C35.8392 25.7631 37.0789 23.8004 38.8519 22.6045C40.6249 21.4086 42.9091 20.9944 45.6841 21.3582C48.4631 21.7226 51.7042 22.8645 55.3429 24.7428C62.6197 28.4992 71.398 35.1539 81.1055 44.1947C100.515 62.2712 123.561 89.8133 145.634 122.537C167.707 155.262 184.61 186.947 194.099 211.715C198.845 224.102 201.727 234.734 202.484 242.888C202.862 246.966 202.707 250.398 202.004 253.112C201.302 255.821 200.062 257.784 198.289 258.979Z" stroke="#C6C6C6" stroke-width="0.945941"/>
<path d="M188.684 264.926C186.814 265.962 184.502 266.176 181.77 265.572C179.033 264.966 175.904 263.546 172.443 261.358C165.521 256.982 157.356 249.587 148.473 239.735C130.713 220.036 110.155 190.59 91.0185 156.066C71.8819 121.543 57.8045 88.5046 50.5099 63.0043C46.8615 50.2504 44.9174 39.4077 44.8741 31.2186C44.8524 27.1238 45.3064 23.7176 46.2434 21.076C47.179 18.4383 48.5851 16.5911 50.4556 15.5543C52.326 14.5175 54.6377 14.3039 57.3705 14.9082C60.1071 15.5134 63.2363 16.9334 66.6974 19.1217C73.6192 23.498 81.7841 30.8925 90.6667 40.745C108.427 60.4443 128.985 89.8902 148.121 124.414C167.258 158.937 181.336 191.975 188.63 217.476C192.278 230.229 194.223 241.072 194.266 249.261C194.288 253.356 193.834 256.762 192.897 259.404C191.961 262.042 190.555 263.889 188.684 264.926Z" stroke="#C6C6C6" stroke-width="0.945941"/>
</g>
</g>
</svg>
