<svg width="153" height="30" viewBox="0 0 153 30" fill="none" xmlns="http://www.w3.org/2000/svg">
<path d="M78.8887 14.5638C77.6375 14.5638 76.7355 14.9741 75.8209 15.3921V24.8507C76.697 24.9342 77.1991 24.9342 78.0302 24.9342C81.0335 24.9342 81.4452 23.5588 81.4452 21.6384V17.1209C81.4452 15.7028 80.9746 14.5638 78.8887 14.5638ZM58.9433 14.0476C56.8595 14.0476 56.384 15.1915 56.384 16.6082V17.4043H61.4997V16.6082C61.4997 15.1915 61.0242 14.0476 58.9433 14.0476ZM20.305 23.8926C20.305 25.0134 20.8338 25.5956 22.0009 25.5956C23.2528 25.5956 23.9942 25.1874 24.908 24.7679V22.5243H22.1706C20.8745 22.5243 20.305 22.7655 20.305 23.8926ZM98.2906 14.5638C96.2034 14.5638 95.4802 15.7028 95.4802 17.1209V22.2963C95.4802 23.718 96.2034 24.8605 98.2906 24.8605C100.372 24.8605 101.101 23.718 101.101 22.2963V17.1209C101.1 15.7028 100.372 14.5638 98.2906 14.5638ZM10.0762 29.6957H3.94067V14.845H0.875V9.72783H3.94137V6.65444C3.94137 2.47921 5.67165 -0.00292969 10.5896 -0.00292969H14.6842V5.11564H12.1249C10.2102 5.11564 10.0839 5.83104 10.0839 7.16574L10.0762 9.72713H14.7123L14.1701 14.8443H10.0762V29.6957ZM31.045 29.7343H25.9313L25.7104 28.441C23.3755 29.7343 21.2918 29.944 19.9171 29.944C16.1669 29.944 14.1708 27.4387 14.1708 23.974C14.1708 19.8864 16.5 18.4276 20.6669 18.4276H24.908V17.5439C24.908 15.4573 24.6689 14.845 21.4601 14.845H16.2139L16.7266 9.72783H22.461C29.5013 9.72783 31.045 11.9519 31.045 17.5852V29.7343ZM48.434 15.2202C45.2519 14.6746 44.338 14.5546 42.8069 14.5546C40.0569 14.5546 39.2257 15.1613 39.2257 17.4969V21.9148C39.2257 24.2503 40.0569 24.8598 42.8069 24.8598C44.338 24.8598 45.2519 24.7378 48.434 24.19V29.1816C45.6467 29.8066 43.8309 29.9707 42.2963 29.9707C35.7091 29.9707 33.0909 26.5066 33.0909 21.5024V17.9177C33.0909 12.9092 35.7091 9.43887 42.2963 9.43887C43.8309 9.43887 45.6467 9.60369 48.434 10.2314V15.2202ZM67.6346 21.5024H56.3833V21.9148C56.3833 24.2503 57.2151 24.8598 59.9644 24.8598C62.4361 24.8598 63.9447 24.7378 67.1212 24.19V29.1816C64.0576 29.8066 62.4613 29.9707 59.456 29.9707C52.868 29.9707 50.2484 26.5066 50.2484 21.5024V17.4036C50.2484 13.025 52.1919 9.43887 58.9426 9.43887C65.6932 9.43887 67.6346 12.9836 67.6346 17.4036V21.5024ZM87.5794 21.5971C87.5794 26.4337 86.197 29.9616 77.8226 29.9616C74.7984 29.9616 73.0246 29.6957 69.6868 29.1823V1.53447L75.8202 0.511173V10.1823C77.1458 9.68996 78.8614 9.43957 80.4226 9.43957C86.5568 9.43957 87.5786 12.1896 87.5786 16.6089L87.5794 21.5971ZM107.241 21.7023C107.241 25.8747 105.518 29.9216 98.311 29.9216C91.1002 29.9216 89.3454 25.8747 89.3454 21.7023V17.6736C89.3454 13.4991 91.1002 9.45149 98.311 9.45149C105.518 9.45149 107.241 13.4991 107.241 17.6736V21.7023ZM126.889 21.7023C126.889 25.8747 125.164 29.9216 117.958 29.9216C110.748 29.9216 108.993 25.8747 108.993 21.7023V17.6736C108.993 13.4991 110.748 9.45149 117.958 9.45149C125.164 9.45149 126.889 13.4991 126.889 17.6736V21.7023ZM147.052 29.6957H140.404L134.781 20.3094V29.6957H128.646V1.53376L134.781 0.510471V18.6401L140.404 9.72783H147.052L140.914 19.4537L147.052 29.6957ZM117.937 14.5638C115.854 14.5638 115.13 15.7028 115.13 17.1209V22.2963C115.13 23.718 115.854 24.8605 117.937 24.8605C120.018 24.8605 120.755 23.718 120.755 22.2963V17.1209C120.755 15.7028 120.018 14.5638 117.937 14.5638ZM150.554 26.1931C151.587 26.1931 152.41 27.0355 152.41 28.0875C152.41 29.1557 151.587 29.9889 150.547 29.9889C149.511 29.9889 148.672 29.1557 148.672 28.0875C148.672 27.0355 149.511 26.1931 150.547 26.1931H150.554ZM150.547 26.4877C149.714 26.4877 149.033 27.2038 149.033 28.0875C149.033 28.9874 149.715 29.6943 150.554 29.6943C151.395 29.7028 152.066 28.9874 152.066 28.0959C152.066 27.2045 151.395 26.4877 150.554 26.4877H150.547ZM150.194 29.1901H149.857V27.0761C150.034 27.0516 150.202 27.027 150.455 27.027C150.775 27.027 150.984 27.0944 151.112 27.1863C151.236 27.2795 151.303 27.4219 151.303 27.6232C151.303 27.9023 151.119 28.07 150.892 28.138V28.1541C151.077 28.1885 151.202 28.3554 151.245 28.6661C151.294 28.9951 151.346 29.1206 151.378 29.1894H151.026C150.976 29.1206 150.925 28.9277 150.883 28.6493C150.834 28.3807 150.697 28.2797 150.428 28.2797H150.195L150.194 29.1901ZM150.194 28.0202H150.438C150.714 28.0202 150.949 27.9185 150.949 27.6569C150.949 27.4717 150.816 27.2872 150.438 27.2872C150.328 27.2872 150.251 27.2957 150.194 27.3034V28.0202Z" fill="#6F6F6F"/>
</svg>
