<svg width="111" height="36" viewBox="0 0 111 36" fill="none" xmlns="http://www.w3.org/2000/svg">
<path d="M13.669 0H14.6495C18.0534 0.0739979 21.4018 1.44296 23.8067 3.86639C22.9187 4.77287 22.0123 5.64234 21.1428 6.54882C19.7923 5.32785 18.1644 4.38438 16.3884 4.05139C13.7615 3.4964 10.9311 3.99589 8.72964 5.49435C6.32471 7.0668 4.69675 9.73073 4.34526 12.5796C3.95677 15.3916 4.75225 18.3515 6.5837 20.5344C8.34115 22.6619 11.0236 23.9938 13.7985 24.0863C16.3884 24.2343 19.0894 23.4388 20.9763 21.6259C22.4563 20.3494 23.1407 18.407 23.3627 16.52C20.2918 16.52 17.2209 16.5385 14.15 16.52V12.7091H27.0811C27.7471 16.7975 26.7851 21.4039 23.6772 24.3268C21.6053 26.3988 18.7379 27.6197 15.8149 27.8602C12.9845 28.1377 10.0616 27.6012 7.54567 26.2323C4.53026 24.6228 2.12533 21.9034 0.941358 18.703C-0.168611 15.7616 -0.18711 12.4317 0.848861 9.47174C1.79233 6.77081 3.60528 4.38438 5.93622 2.71942C8.17466 1.07297 10.8941 0.166495 13.669 0Z" fill="#6F6F6F"/>
<path d="M87.8438 0.963867H91.8026V27.3811C90.4892 27.3811 89.1572 27.3996 87.8438 27.3626C87.8622 18.5754 87.8438 9.76962 87.8438 0.963867Z" fill="#6F6F6F"/>
<path d="M35.8916 10.1182C38.3335 9.65572 40.979 10.1737 42.9954 11.6352C44.8268 12.9301 46.1033 14.9651 46.4918 17.185C46.9913 19.7564 46.3623 22.5684 44.6973 24.6033C42.9029 26.8787 39.9615 28.0997 37.0941 27.9147C34.4671 27.7667 31.9142 26.4532 30.3602 24.3073C28.6028 21.9394 28.1773 18.6835 29.1393 15.9085C30.1013 12.9301 32.8207 10.6547 35.8916 10.1182ZM36.4466 13.6331C35.4476 13.8921 34.5226 14.4656 33.8566 15.2796C32.0622 17.4255 32.1732 20.9219 34.1526 22.9198C35.2811 24.0668 36.9831 24.6033 38.5555 24.2888C40.017 24.0298 41.2934 23.0493 41.9964 21.7544C43.2174 19.5529 42.8659 16.519 40.9975 14.7986C39.795 13.6886 38.0375 13.2261 36.4466 13.6331Z" fill="#6F6F6F"/>
<path d="M55.4952 10.1196C58.2886 9.58308 61.341 10.3601 63.4314 12.321C66.8353 15.3734 67.2053 21.0898 64.3009 24.6047C62.5435 26.8246 59.6945 28.0456 56.8826 27.9161C54.2002 27.8421 51.5548 26.5101 49.9638 24.3087C48.1694 21.8852 47.7809 18.5553 48.7983 15.7249C49.8158 12.839 52.4797 10.6376 55.4952 10.1196ZM56.0501 13.6345C55.0512 13.8935 54.1262 14.4669 53.4602 15.2624C51.6843 17.3714 51.7583 20.8123 53.6637 22.8287C54.7922 24.0312 56.5496 24.6232 58.1776 24.2902C59.6205 24.0127 60.9155 23.0507 61.6185 21.7557C62.821 19.5358 62.4695 16.5019 60.5825 14.7814C59.38 13.6715 57.6226 13.2275 56.0501 13.6345Z" fill="#6F6F6F"/>
<path d="M72.1251 11.1931C74.2526 9.86115 77.083 9.49116 79.3769 10.6381C80.0984 10.9526 80.6904 11.4891 81.2639 12.0256C81.2824 11.5261 81.2639 11.0081 81.2824 10.4901C82.5218 10.5086 83.7613 10.4901 85.0193 10.5086V26.8252C85.0008 29.2856 84.3718 31.894 82.5958 33.6885C80.6534 35.6679 77.675 36.2784 74.9925 35.8714C72.1251 35.4459 69.6277 33.3555 68.5177 30.7101C69.6277 30.1736 70.7932 29.7481 71.9401 29.2486C72.5876 30.7656 73.9011 32.0605 75.5475 32.3565C77.194 32.6525 79.0994 32.2455 80.1724 30.8766C81.3194 29.4706 81.3194 27.5467 81.2639 25.8262C80.4129 26.6587 79.4324 27.3987 78.2484 27.6762C75.677 28.3976 72.8466 27.5097 70.8672 25.7707C68.8692 24.0318 67.6852 21.3493 67.7962 18.6854C67.8517 15.67 69.5537 12.7656 72.1251 11.1931ZM75.9545 13.561C74.826 13.746 73.7716 14.375 73.0501 15.2445C71.3111 17.3164 71.3111 20.6279 73.0686 22.6628C74.0676 23.8653 75.677 24.5312 77.231 24.3647C78.6924 24.2168 80.0429 23.2918 80.7644 22.0153C81.9853 19.8509 81.7818 16.9095 80.1354 15.0225C79.1179 13.857 77.49 13.2836 75.9545 13.561Z" fill="#6F6F6F"/>
<path d="M96.5666 12.1374C98.7866 10.0654 102.209 9.36247 105.058 10.4539C107.759 11.4714 109.479 14.0428 110.349 16.6883C106.334 18.3532 102.338 19.9997 98.3241 21.6646C98.8791 22.7191 99.73 23.6811 100.877 24.0696C102.486 24.643 104.41 24.4395 105.761 23.3666C106.297 22.9596 106.723 22.4231 107.13 21.9051C108.147 22.5896 109.165 23.2556 110.182 23.9401C108.739 26.1045 106.316 27.6215 103.707 27.862C100.821 28.2134 97.7506 27.1035 95.8821 24.8465C92.8112 21.2946 93.1072 15.3378 96.5666 12.1374ZM98.5461 15.5598C97.9171 16.4663 97.6581 17.5762 97.6766 18.6677C100.359 17.5577 103.041 16.4478 105.724 15.3193C105.28 14.2833 104.207 13.6544 103.115 13.4879C101.358 13.1734 99.5265 14.1168 98.5461 15.5598Z" fill="#6F6F6F"/>
</svg>
