<svg width="52" height="46" viewBox="0 0 52 46" fill="none" xmlns="http://www.w3.org/2000/svg">
<g opacity="0.88">
<path d="M25.8369 4.13651L7.91404 8.76462C6.91736 9.02205 6.73905 10.3616 7.63406 10.8704L23.6946 20.0057C25.1057 20.8084 26.77 21.0423 28.3476 20.6596L46.3043 16.3049C47.3047 16.0627 47.503 14.7262 46.6153 14.204L30.663 4.81452C29.2077 3.95793 27.4718 3.71397 25.8367 4.13622" fill="#FCB400"/>
<path d="M27.0135 24.2275L24.6455 41.0773C24.5329 41.8785 25.2638 42.541 26.0503 42.3504L46.0368 37.6575C46.4934 37.5469 46.8362 37.1686 46.9015 36.7033L49.2695 19.8538C49.3822 19.0524 48.6512 18.39 47.8647 18.5806L27.8782 23.2735C27.4216 23.3843 27.0789 23.7625 27.0135 24.2277" fill="#18BFFF"/>
<path d="M22.4691 24.4739L16.4627 26.3992L15.8528 26.595L3.17978 30.6155C2.37635 30.8729 1.49253 30.1893 1.61004 29.3532L3.83264 13.5385C3.87516 13.236 4.06696 12.9967 4.30257 12.8295C4.39984 12.7565 4.50685 12.6975 4.62049 12.6542C4.92791 12.5238 5.339 12.5352 5.66397 12.7197L22.6664 22.3842C23.5306 22.876 23.4223 24.1685 22.4691 24.4742" fill="#F82B60"/>
<path d="M22.4693 24.4747L16.4629 26.4L4.30279 12.8299C4.40006 12.757 4.50706 12.6981 4.62067 12.6549C4.92809 12.5245 5.33918 12.5359 5.66415 12.7204L22.6666 22.385C23.5308 22.8767 23.4224 24.1692 22.4692 24.4749" fill="black" fill-opacity="0.25"/>
</g>
</svg>
