<svg width="40" height="45" viewBox="0 0 40 45" fill="none" xmlns="http://www.w3.org/2000/svg">
<path d="M38.4575 22.143C37.9432 23.6858 37.3432 25.1716 36.6575 26.6001C36.0289 28.0287 35.1146 29.4001 33.9146 30.7144C33.5146 31.1716 33.0003 31.9144 32.3718 32.943C31.8003 33.9144 31.2003 34.7716 30.5718 35.5144C30.4003 35.743 30.1432 35.943 29.8003 36.1144C29.5146 36.2287 29.2575 36.4001 29.0289 36.6287C28.6289 37.2001 28.086 37.7715 27.4003 38.343C26.7718 38.9144 26.1146 39.5144 25.4289 40.143C25.3146 40.2001 25.1718 40.2287 25.0003 40.2287C24.8289 40.2287 24.686 40.2573 24.5718 40.3144C23.7146 40.8858 22.8289 41.6001 21.9146 42.4573C21.0575 43.2573 20.3432 43.8001 19.7718 44.0858C19.4289 44.3144 19.0575 44.4287 18.6575 44.4287C18.3146 44.4858 17.9718 44.6001 17.6289 44.7715C16.3146 45.2287 15.2289 45.0001 14.3718 44.0858C13.9718 43.6858 13.686 43.3716 13.5146 43.143C13.1146 42.6858 12.9432 42.1716 13.0003 41.6001C13.0575 40.9715 13.2575 40.4573 13.6003 40.0573C14.2289 39.4858 14.886 38.943 15.5718 38.4287C16.2575 37.8573 16.8003 37.4287 17.2003 37.143C17.886 36.5715 18.486 36.143 19.0003 35.8573C19.5146 35.5144 20.1432 34.9715 20.886 34.2287C22.1432 33.0287 23.2575 32.0001 24.2289 31.143C25.2575 30.2858 26.1718 29.343 26.9718 28.3144C27.8289 27.2858 28.6289 25.9144 29.3718 24.2001C29.886 23.1144 30.3146 21.8287 30.6575 20.343C31.0575 18.8001 31.1432 17.2001 30.9146 15.543C30.686 13.8287 29.9146 12.1716 28.6003 10.5716C27.4575 8.57155 26.0861 7.17155 24.486 6.37155C22.886 5.51441 21.3146 4.88584 19.7718 4.48584C18.2289 4.02869 16.9718 3.45727 16.0003 2.77155C15.5432 2.42869 15.3432 1.97155 15.4003 1.40012C15.5146 0.828694 15.8575 0.485837 16.4289 0.371553C17.5718 0.0858389 19.2289 0.000123993 21.4003 0.114408C23.5718 0.228692 26.1146 0.742978 29.0289 1.65727C30.2289 2.05727 31.0289 2.45727 31.4289 2.85727C31.886 3.20012 32.5718 3.77155 33.486 4.57155C33.8289 4.85727 34.1146 5.17155 34.3432 5.51441C34.5718 5.85726 34.8575 6.17155 35.2003 6.45726C35.3146 6.62869 35.5146 6.94298 35.8003 7.40012C36.1432 7.80012 36.4003 8.05727 36.5718 8.17155C38.1718 10.1144 39.0575 12.4001 39.2289 15.0287C39.4575 17.6001 39.2003 19.9715 38.4575 22.143ZM13.6003 6.45726C13.7718 7.20012 13.7718 7.88584 13.6003 8.51441C12.2289 14.5144 11.0289 20.4573 10.0003 26.343C8.97176 32.2287 7.88605 37.943 6.74319 43.4858C6.62891 44.0573 6.31462 44.4858 5.80033 44.7715C5.28605 45.0573 4.74319 45.0858 4.17176 44.8573C4.00033 44.8573 3.80033 44.8001 3.57176 44.6858C3.00033 44.4573 2.51462 44.143 2.11462 43.743C1.71462 43.2858 1.37176 42.8001 1.08605 42.2858C1.02891 41.943 0.914621 41.6001 0.743192 41.2573C0.628906 40.9144 0.600335 40.543 0.657478 40.143C0.943192 38.3144 1.28605 36.4287 1.68605 34.4858C2.08605 32.543 2.48605 30.6858 2.88605 28.9144C3.40033 26.6858 3.88605 24.3144 4.34319 21.8001C4.85748 19.2858 5.34319 16.8573 5.80033 14.5144C6.25748 12.1144 6.68605 9.97155 7.08605 8.08584C7.20033 7.40012 7.28605 6.65726 7.34319 5.85726C7.40033 5.05727 7.48605 4.34298 7.60033 3.71441C7.77176 3.08584 8.11462 2.65726 8.62891 2.42869C9.20033 2.20012 9.77176 2.22869 10.3432 2.51441C10.4575 2.51441 10.6003 2.60012 10.7718 2.77155C11.5718 3.00012 12.2003 3.45726 12.6575 4.14298C13.1718 4.77155 13.486 5.54298 13.6003 6.45726Z" fill="white"/>
</svg>
