<svg width="61" height="57" viewBox="0 0 61 57" fill="none" xmlns="http://www.w3.org/2000/svg">
<g filter="url(#filter0_d_307_406)">
<path d="M30.1034 47.8074L38.2223 22.8203H21.9844L30.1033 47.8074H30.1034Z" fill="#E24329"/>
<path d="M30.0949 47.8074L21.9759 22.8203H10.5977L30.0949 47.8074Z" fill="#FC6D26"/>
<path d="M10.6004 22.8203L8.13318 30.4138C7.90814 31.1064 8.15461 31.865 8.74368 32.2931L30.0976 47.8076L10.6002 22.8205L10.6004 22.8203Z" fill="#FCA326"/>
<path d="M10.5977 22.8235H21.9764L17.0865 7.77316C16.8348 6.99871 15.7392 6.99888 15.4877 7.77316L10.5977 22.8235Z" fill="#E24329"/>
<path d="M30.0978 47.8074L38.2167 22.8203H49.5951L30.0977 47.8074H30.0978Z" fill="#FC6D26"/>
<path d="M49.5949 22.8203L52.0621 30.4138C52.2871 31.1064 52.0406 31.8651 51.4514 32.2931L30.0977 47.8076L49.5949 22.8203Z" fill="#FCA326"/>
<path d="M49.5898 22.8235H38.2109L43.101 7.77316C43.3527 6.99871 44.4483 6.99888 44.6997 7.77316L49.5898 22.8235Z" fill="#E24329"/>
</g>
<defs>
<filter id="filter0_d_307_406" x="0.0507812" y="0.192383" width="60.0938" height="56.6152" filterUnits="userSpaceOnUse" color-interpolation-filters="sRGB">
<feFlood flood-opacity="0" result="BackgroundImageFix"/>
<feColorMatrix in="SourceAlpha" type="matrix" values="0 0 0 0 0 0 0 0 0 0 0 0 0 0 0 0 0 0 127 0" result="hardAlpha"/>
<feOffset dy="1"/>
<feGaussianBlur stdDeviation="4"/>
<feColorMatrix type="matrix" values="0 0 0 0 0.988235 0 0 0 0 0.427451 0 0 0 0 0.14902 0 0 0 0.24 0"/>
<feBlend mode="normal" in2="BackgroundImageFix" result="effect1_dropShadow_307_406"/>
<feBlend mode="normal" in="SourceGraphic" in2="effect1_dropShadow_307_406" result="shape"/>
</filter>
</defs>
</svg>
