<svg width="169" height="36" viewBox="0 0 169 36" fill="none" xmlns="http://www.w3.org/2000/svg">
<path d="M168.613 16.2828V13.3178H164.931V8.70828L164.807 8.74644L161.349 9.8046L161.281 9.82531V13.318H155.822V11.3723C155.822 10.4663 156.025 9.77296 156.424 9.31059C156.821 8.85376 157.388 8.62151 158.111 8.62151C158.631 8.62151 159.169 8.744 159.711 8.98554L159.847 9.04621V5.92362L159.783 5.90013C159.278 5.71845 158.59 5.62695 157.738 5.62695C156.664 5.62695 155.688 5.86067 154.837 6.32385C153.986 6.78769 153.316 7.44985 152.847 8.29174C152.379 9.13265 152.142 10.1039 152.142 11.1787V13.3178H149.578V16.2828H152.142V28.774H155.822V16.2828H161.281V24.2208C161.281 27.49 162.823 29.1467 165.864 29.1467C166.364 29.1467 166.89 29.0881 167.427 28.9735C167.974 28.8557 168.346 28.7381 168.565 28.6125L168.614 28.5838V25.5914L168.464 25.6904C168.264 25.8235 168.015 25.9323 167.724 26.0132C167.431 26.0955 167.186 26.1368 166.997 26.1368C166.284 26.1368 165.757 25.9448 165.43 25.566C165.099 25.1837 164.932 24.5151 164.932 23.58V16.2828H168.613ZM141.359 26.1373C140.023 26.1373 138.97 25.6943 138.227 24.8218C137.48 23.9448 137.102 22.6945 137.102 21.106C137.102 19.4671 137.48 18.1843 138.228 17.2919C138.97 16.4053 140.013 15.9553 141.329 15.9553C142.605 15.9553 143.621 16.3851 144.349 17.2333C145.08 18.086 145.451 19.3585 145.451 21.0165C145.451 22.6949 145.102 23.9841 144.414 24.8466C143.73 25.7025 142.702 26.1373 141.359 26.1373ZM141.522 12.9455C138.974 12.9455 136.949 13.6923 135.506 15.1652C134.064 16.6382 133.332 18.6767 133.332 21.2246C133.332 23.6446 134.046 25.5911 135.454 27.0092C136.862 28.4278 138.779 29.1464 141.15 29.1464C143.62 29.1464 145.604 28.3891 147.047 26.8958C148.489 25.4042 149.22 23.3849 149.22 20.8966C149.22 18.4388 148.534 16.4777 147.181 15.0691C145.827 13.6598 143.923 12.9455 141.522 12.9455ZM127.398 12.9455C125.664 12.9455 124.23 13.3889 123.135 14.2632C122.033 15.1428 121.474 16.2964 121.474 17.6923C121.474 18.4179 121.594 19.0624 121.832 19.6091C122.071 20.1576 122.44 20.6405 122.932 21.0458C123.419 21.4478 124.172 21.869 125.169 22.2974C126.007 22.6423 126.632 22.9341 127.029 23.1641C127.417 23.3895 127.693 23.616 127.849 23.8367C128 24.0526 128.076 24.3481 128.076 24.7128C128.076 25.7512 127.299 26.2565 125.699 26.2565C125.105 26.2565 124.428 26.1325 123.687 25.8882C122.95 25.6476 122.255 25.2952 121.626 24.8435L121.473 24.7339V28.2774L121.529 28.3035C122.05 28.5439 122.707 28.7466 123.481 28.9061C124.253 29.0658 124.955 29.147 125.564 29.147C127.446 29.147 128.961 28.7014 130.066 27.8219C131.179 26.9363 131.742 25.7555 131.742 24.3113C131.742 23.2694 131.439 22.376 130.841 21.6555C130.246 20.9408 129.215 20.2847 127.777 19.7047C126.631 19.2448 125.897 18.863 125.594 18.5699C125.302 18.2868 125.154 17.8864 125.154 17.3793C125.154 16.9298 125.337 16.5697 125.712 16.2781C126.091 15.985 126.618 15.836 127.279 15.836C127.892 15.836 128.519 15.9328 129.143 16.1227C129.767 16.3125 130.315 16.5668 130.772 16.8778L130.922 16.9805V13.6192L130.864 13.5944C130.443 13.4135 129.887 13.2588 129.211 13.1332C128.539 13.0084 127.929 12.9455 127.398 12.9455ZM111.879 26.1373C110.543 26.1373 109.489 25.6943 108.747 24.8218C108 23.9448 107.623 22.6949 107.623 21.106C107.623 19.4671 108.001 18.1843 108.748 17.2919C109.49 16.4053 110.533 15.9553 111.849 15.9553C113.125 15.9553 114.141 16.3851 114.869 17.2333C115.6 18.086 115.971 19.3585 115.971 21.0165C115.971 22.6949 115.622 23.9841 114.934 24.8466C114.25 25.7025 113.223 26.1373 111.879 26.1373ZM112.043 12.9455C109.493 12.9455 107.469 13.6923 106.026 15.1652C104.584 16.6382 103.852 18.6767 103.852 21.2246C103.852 23.6455 104.566 25.5911 105.975 27.0092C107.383 28.4278 109.299 29.1464 111.67 29.1464C114.14 29.1464 116.125 28.3891 117.567 26.8958C119.009 25.4042 119.741 23.3849 119.741 20.8966C119.741 18.4388 119.055 16.4777 117.701 15.0691C116.347 13.6598 114.443 12.9455 112.043 12.9455ZM98.2651 15.9945V13.3178H94.6295V28.7737H98.2651V20.8674C98.2651 19.523 98.57 18.4185 99.1714 17.5843C99.7653 16.76 100.557 16.3424 101.523 16.3424C101.85 16.3424 102.218 16.3963 102.616 16.5032C103.01 16.6093 103.295 16.7247 103.464 16.846L103.617 16.9567V13.2914L103.558 13.2661C103.219 13.1222 102.74 13.0497 102.134 13.0497C101.22 13.0497 100.403 13.3432 99.7025 13.9212C99.0878 14.4293 98.6435 15.1258 98.3038 15.9945H98.2651ZM88.1186 12.9455C86.4506 12.9455 84.9629 13.3031 83.6975 14.0082C82.4294 14.7149 81.4487 15.7238 80.7815 17.0066C80.1172 18.2864 79.7799 19.7814 79.7799 21.4485C79.7799 22.9088 80.107 24.249 80.7533 25.4301C81.4 26.6132 82.3152 27.5387 83.4739 28.1807C84.6308 28.8218 85.968 29.1468 87.4486 29.1468C89.1764 29.1468 90.6516 28.8014 91.8344 28.1202L91.8821 28.0928V24.7619L91.7293 24.8735C91.1936 25.2637 90.5948 25.5753 89.9506 25.7997C89.308 26.0239 88.7222 26.1373 88.2085 26.1373C86.7819 26.1373 85.6366 25.6909 84.8053 24.8108C83.9723 23.9296 83.5499 22.6922 83.5499 21.1352C83.5499 19.5684 83.9904 18.2992 84.8585 17.3627C85.7241 16.429 86.8714 15.9553 88.2685 15.9553C89.4635 15.9553 90.6279 16.36 91.7296 17.1591L91.8821 17.2699V13.7603L91.8329 13.7325C91.4183 13.5005 90.8529 13.3088 90.1509 13.1635C89.4519 13.0185 88.7682 12.9455 88.1186 12.9455ZM77.276 13.318H73.6403V28.7737H77.276V13.318ZM75.4953 6.73371C74.8969 6.73371 74.375 6.93741 73.9463 7.34107C73.5157 7.74587 73.2973 8.25553 73.2973 8.85702C73.2973 9.44905 73.5131 9.94942 73.9396 10.3435C74.3633 10.7363 74.8868 10.9355 75.4955 10.9355C76.104 10.9355 76.6295 10.7363 77.0582 10.3441C77.4898 9.94942 77.7087 9.44921 77.7087 8.85702C77.7087 8.27657 77.4957 7.77212 77.076 7.35738C76.6567 6.94344 76.1247 6.73371 75.4953 6.73371ZM66.4241 12.1776V28.7737H70.1344V7.20684H64.9991L58.4718 23.2261L52.1374 7.20684H46.793V28.7735H50.2797V12.176H50.3995L57.0884 28.7737H59.7198L66.3043 12.1776H66.4241Z" fill="#6F6F6F"/>
<path d="M17.1033 17.1033H0V0H17.1033V17.1033Z" fill="#6F6F6F"/>
<path d="M35.9858 17.1033H18.8828V0H35.9858V17.1033Z" fill="#6F6F6F"/>
<path d="M17.1028 35.9889H0V18.8857H17.1028V35.9889Z" fill="#6F6F6F"/>
<path d="M35.9858 35.9889H18.8828V18.8857H35.9858V35.9889Z" fill="#6F6F6F"/>
</svg>
