<svg width="22" height="48" viewBox="0 0 22 48" fill="none" xmlns="http://www.w3.org/2000/svg">
<path fill-rule="evenodd" clip-rule="evenodd" d="M20.6077 15.6621C21.2398 17.4894 21.6941 19.3548 21.8441 21.2877C22.0295 23.6863 21.945 26.0684 21.4391 28.4274L21.3742 28.6159C21.2156 28.6164 21.0538 28.5963 20.8987 28.6205C19.5887 28.8266 18.2802 29.0399 16.9711 29.2521C15.6178 29.4716 14.2634 29.6823 12.9127 29.9162C12.4341 29.9986 11.8416 29.9002 11.6484 30.5617L11.5557 30.5931L11.6211 26.6377L11.5547 17.0938L12.1852 16.9856C13.2161 16.8171 14.2469 16.6456 15.2793 16.4812C16.5106 16.286 17.7428 16.0954 18.9751 15.9048C19.5191 15.8213 20.0637 15.7435 20.6077 15.6621Z" fill="#439934"/>
<path fill-rule="evenodd" clip-rule="evenodd" d="M10.2513 42.1232C9.58618 41.5514 8.89792 41.0048 8.26066 40.4031C4.8307 37.1679 2.32134 33.3593 1.08546 28.7676C0.744934 27.5044 0.518262 26.2201 0.445109 24.9147C0.393593 24.0008 0.319924 23.0792 0.384835 22.1699C0.556384 19.7522 0.906181 17.3578 1.61505 15.0287L1.6542 14.9746C1.72323 15.0663 1.82214 15.1477 1.85717 15.2513C2.54955 17.2892 3.23627 19.3293 3.91989 21.3709C6.06761 27.7852 8.21275 34.201 10.3641 40.6143C10.4063 40.7395 10.515 40.842 10.5933 40.9548L10.2513 42.1232Z" fill="#45A538"/>
<path fill-rule="evenodd" clip-rule="evenodd" d="M20.6074 15.6635C20.0629 15.7444 19.5183 15.8227 18.9748 15.9061C17.7426 16.0968 16.5103 16.2874 15.2791 16.4826C14.2472 16.6464 13.2163 16.818 12.185 16.987L11.5544 17.0951L11.5493 16.684C11.5281 16.3461 11.4931 16.0082 11.4885 15.6702L11.4179 9.20284C11.4014 7.85362 11.3767 6.50441 11.3494 5.15571C11.3324 4.31754 11.3144 3.47885 11.2767 2.64171C11.2561 2.19197 11.1835 1.74429 11.1547 1.29455C11.1376 1.03594 11.1603 0.775268 11.166 0.515625C11.4874 1.13846 11.8022 1.76593 12.1324 2.38413C12.6543 3.36139 13.4863 4.08159 14.2358 4.86722C17.196 7.97417 19.2973 11.5844 20.6074 15.6635Z" fill="#46A037"/>
<path fill-rule="evenodd" clip-rule="evenodd" d="M11.5568 30.5939L11.6495 30.5625C11.8427 29.901 12.4351 29.9994 12.9137 29.917C14.2645 29.6831 15.6188 29.4724 16.9722 29.2529C18.2812 29.0412 19.5897 28.8279 20.8998 28.6213C21.0549 28.5971 21.2166 28.6172 21.3753 28.6167C21.1306 29.4904 20.9379 30.3832 20.6273 31.2327C20.2744 32.1961 19.8478 33.1368 19.395 34.0589C18.7181 35.437 17.8748 36.7228 16.8949 37.901C16.1397 38.8087 15.2979 39.6489 14.4546 40.4778C13.9878 40.9358 13.4387 41.3093 12.9266 41.7214L12.7937 41.6308L12.3161 41.2228L11.8221 40.1389C11.4816 38.8705 11.3033 37.5795 11.2734 36.2669L11.2827 36.0464L11.3502 35.0913C11.3724 34.7652 11.4022 34.4396 11.4161 34.1135C11.4656 32.941 11.5099 31.7675 11.5568 30.5939Z" fill="#409433"/>
<path fill-rule="evenodd" clip-rule="evenodd" d="M11.5524 30.5955C11.506 31.769 11.4617 32.9431 11.4117 34.1166C11.3978 34.4432 11.3685 34.7688 11.3458 35.0944L11.0449 35.2082C10.3763 33.2398 9.70706 31.292 9.0528 29.3395C7.97044 26.1089 6.90147 22.8737 5.82066 19.642C4.94849 17.0343 4.06859 14.4281 3.18405 11.8239C3.14232 11.7023 3.02383 11.6065 2.94141 11.4988L4.86812 7.95605C4.93458 8.07094 5.02164 8.17861 5.06337 8.30225C5.9546 10.9399 6.84429 13.578 7.72625 16.2188C8.87404 19.6549 10.0141 23.0926 11.1608 26.5293C11.2067 26.6663 11.2819 26.793 11.354 26.9471L11.6178 26.64C11.5956 27.9588 11.574 29.2766 11.5524 30.5955Z" fill="#4FAA41"/>
<path fill-rule="evenodd" clip-rule="evenodd" d="M2.94025 11.4951C3.0232 11.6028 3.14168 11.6986 3.1829 11.8202C4.06743 14.4243 4.94733 17.03 5.81951 19.6383C6.90032 22.8699 7.96928 26.1052 9.05164 29.3358C9.7059 31.2882 10.3751 33.2356 11.0438 35.2045L11.3446 35.0907L11.2772 36.0458L11.2158 36.2658C11.1113 37.311 11.0232 38.3583 10.8954 39.4016C10.8315 39.9244 10.695 40.4375 10.5915 40.9548C10.5137 40.842 10.4045 40.7394 10.3622 40.6143C8.21038 34.201 6.06575 27.7851 3.91803 21.3708C3.23441 19.3292 2.54718 17.2892 1.85532 15.2512C1.82029 15.1476 1.72138 15.0662 1.65234 14.9745L2.94025 11.4951Z" fill="#4AA73C"/>
<path fill-rule="evenodd" clip-rule="evenodd" d="M11.6208 26.6385L11.357 26.9456C11.2849 26.7915 11.2097 26.6648 11.1638 26.5278C10.0171 23.0911 8.87701 19.6534 7.72922 16.2173C6.84726 13.5766 5.95757 10.9384 5.06634 8.30076C5.02461 8.17712 4.93755 8.06945 4.87109 7.95457L7.25373 4.82031C7.32894 4.92025 7.43609 5.00938 7.47473 5.1222C8.1362 7.05922 8.79149 8.99778 9.44369 10.9379C10.0526 12.7502 10.6523 14.5646 11.2684 16.3739C11.3096 16.495 11.4533 16.5805 11.5492 16.6835L11.5543 17.0946L11.6208 26.6385Z" fill="#57AE47"/>
<path fill-rule="evenodd" clip-rule="evenodd" d="M11.5454 16.6831C11.4491 16.5806 11.3059 16.495 11.2647 16.3735C10.6491 14.5642 10.0489 12.7498 9.43996 10.9374C8.78776 8.99734 8.13247 7.05878 7.471 5.12176C7.43237 5.00894 7.32521 4.91982 7.25 4.81988C8.02481 4.06104 8.7754 3.2749 9.58163 2.55109C10.2982 1.90817 10.8742 1.21888 10.901 0.202459L10.9576 0L11.1616 0.514134C11.1565 0.773776 11.1333 1.03445 11.1503 1.29306C11.1797 1.7428 11.2523 2.19048 11.2724 2.64022C11.31 3.47736 11.328 4.31604 11.345 5.15422C11.3723 6.50292 11.3971 7.85213 11.4136 9.20135L11.4841 15.6687C11.4893 16.0072 11.5248 16.3451 11.5454 16.6831Z" fill="#60B24F"/>
<path fill-rule="evenodd" clip-rule="evenodd" d="M10.5926 40.9568C10.6961 40.4396 10.8327 39.9265 10.8965 39.4036C11.0243 38.3609 11.1124 37.3131 11.217 36.2678L11.2432 36.2637L11.269 36.2683C11.2989 37.5809 11.4771 38.8719 11.8176 40.1403C11.7481 40.232 11.6507 40.3129 11.6136 40.4159C11.3277 41.2226 11.0578 42.0361 10.7703 42.8423C10.7312 42.9526 10.6209 43.0386 10.5442 43.1349L10.25 42.1252L10.5926 40.9568Z" fill="#A9AA88"/>
<path fill-rule="evenodd" clip-rule="evenodd" d="M10.543 43.1343C10.6197 43.0374 10.73 42.9519 10.7691 42.8417C11.0566 42.0355 11.3265 41.222 11.6125 40.4153C11.649 40.3122 11.7469 40.2313 11.8165 40.1396L12.3105 41.2236C12.2131 41.3616 12.0782 41.4868 12.0241 41.6408L11.0782 44.4186C11.0391 44.5304 10.9067 44.6087 10.817 44.703L10.543 43.1343Z" fill="#B6B598"/>
<path fill-rule="evenodd" clip-rule="evenodd" d="M10.8203 44.703C10.9094 44.6088 11.0423 44.5305 11.0815 44.4187L12.0273 41.6409C12.0809 41.4869 12.2164 41.3617 12.3138 41.2236L12.7918 41.6311C12.5611 41.8593 12.4328 42.1231 12.5101 42.4564L12.3648 42.9319C12.2988 43.0133 12.203 43.0844 12.1706 43.1776C11.8403 44.1235 11.5256 45.0745 11.1928 46.0198C11.1505 46.1393 11.0336 46.2336 10.9517 46.3397L10.8203 44.703Z" fill="#C2C1A7"/>
<path fill-rule="evenodd" clip-rule="evenodd" d="M10.9515 46.3404C11.034 46.2343 11.1509 46.14 11.1926 46.0205C11.5254 45.0752 11.8407 44.1242 12.1704 43.1784C12.2029 43.0851 12.2987 43.0145 12.3646 42.9326L12.1642 45.1149C12.1107 45.1767 12.0334 45.2308 12.0076 45.3024L11.341 47.2126C11.2941 47.3429 11.2045 47.4594 11.1344 47.5815C11.0721 47.5001 10.9608 47.4212 10.9557 47.3368C10.9361 47.006 10.95 46.6727 10.9515 46.3404Z" fill="#CECDB7"/>
<path fill-rule="evenodd" clip-rule="evenodd" d="M11.1328 47.5818C11.2029 47.4597 11.2925 47.3433 11.3394 47.213L12.006 45.3028C12.0318 45.2306 12.1096 45.1771 12.1626 45.1152L12.1678 46.5474L11.6882 47.7771L11.1328 47.5818Z" fill="#DBDAC7"/>
<path fill-rule="evenodd" clip-rule="evenodd" d="M11.6914 47.7756L12.171 46.5459L12.2699 48.0007L11.6914 47.7756Z" fill="#EBE9DC"/>
<path fill-rule="evenodd" clip-rule="evenodd" d="M12.5067 42.4571C12.4299 42.1243 12.5577 41.8606 12.7885 41.6318L12.9214 41.7225L12.5067 42.4571Z" fill="#CECDB7"/>
<path fill-rule="evenodd" clip-rule="evenodd" d="M11.2708 36.2683L11.245 36.2637L11.2188 36.2678L11.2801 36.0479L11.2708 36.2683Z" fill="#4FAA41"/>
</svg>
