<svg width="183" height="92" viewBox="0 0 183 92" fill="none" xmlns="http://www.w3.org/2000/svg">
<rect y="15.4268" width="177" height="76" rx="2" transform="rotate(-5 0 15.4268)" fill="#161616"/>
<path d="M52.3533 40.8249C52.5297 42.6344 53.3691 43.5548 54.6961 43.4387C56.0589 43.3195 56.7421 42.2478 56.5852 40.4547L55.8682 32.26L58.1993 32.056L58.9163 40.2507C59.172 43.1736 57.5451 45.2312 54.8375 45.4681C52.2553 45.694 50.2748 43.9158 50.0184 41.1918L52.3533 40.8249ZM65.9521 44.4234C63.101 44.6728 61.0651 42.8815 60.8015 39.869C60.538 36.8565 62.2319 34.7388 65.083 34.4893C67.9162 34.2415 69.952 36.0329 70.2156 39.0453C70.4791 42.0578 68.7853 44.1755 65.9521 44.4234ZM63.1864 39.6603C63.3574 41.6149 64.3006 42.6887 65.7889 42.5585C67.2593 42.4299 68.0196 41.207 67.8486 39.2524C67.6776 37.2979 66.7165 36.2256 65.2461 36.3542C63.7578 36.4844 63.0154 37.7058 63.1864 39.6603ZM71.2353 30.9155L73.5305 30.7147L73.9243 35.2155C74.386 34.091 75.3899 33.5876 76.5555 33.4856C78.528 33.3131 79.8907 34.6393 80.0806 36.809L80.6155 42.9237L78.3203 43.1245L77.8575 37.8347C77.7147 36.2029 77.1553 35.3846 75.9718 35.4881C74.7166 35.5979 74.0403 36.5425 74.1815 38.1563L74.6443 43.4461L72.3491 43.6469L71.2353 30.9155ZM81.9894 33.2271L84.0694 33.0451L84.2792 34.6168C84.6683 33.2818 85.7003 32.6856 86.9734 32.5742C89.0893 32.3891 90.3656 33.759 90.5523 35.8929L91.0872 42.0075L88.7741 42.2099L88.3034 36.8305C88.1638 35.2346 87.6745 34.392 86.4372 34.5002C85.182 34.6101 84.5058 35.5546 84.6454 37.1505L85.1161 42.5299L82.8208 42.7308L81.9894 33.2271ZM101.125 28.3005C105.178 27.946 107.656 30.042 108.014 34.1303C108.37 38.2008 106.345 40.6726 102.347 41.0225L98.0073 41.4021L96.8934 28.6707L101.125 28.3005ZM100.161 39.1719L102.062 39.0056C104.716 38.7734 105.883 37.2439 105.629 34.339C105.371 31.3982 103.956 30.0946 101.303 30.3268L99.4018 30.4931L100.161 39.1719ZM114.826 40.1475C111.975 40.3969 109.939 38.6056 109.675 35.5931C109.412 32.5806 111.106 30.4629 113.957 30.2134C116.79 29.9656 118.826 31.7569 119.089 34.7694C119.353 37.7819 117.659 39.8996 114.826 40.1475ZM112.06 35.3844C112.231 37.3389 113.174 38.4128 114.663 38.2826C116.133 38.154 116.893 36.9311 116.722 34.9765C116.551 33.022 115.59 31.9497 114.12 32.0783C112.632 32.2085 111.889 33.4299 112.06 35.3844ZM120.567 34.6401C120.304 31.6276 121.998 29.51 124.849 29.2605C127.305 29.0456 129.425 30.5586 129.755 33.9086L129.803 34.4645L123.043 35.056C123.289 36.6245 124.197 37.5027 125.559 37.3835C126.42 37.3082 127.165 36.7371 127.434 35.8824L129.799 35.8562C129.383 37.7175 127.762 39.0157 125.718 39.1946C122.867 39.444 120.831 37.6526 120.567 34.6401ZM122.928 33.5302L127.303 33.1474C126.981 31.5313 126.029 30.9822 125.007 31.0716C123.734 31.183 122.983 32.0979 122.928 33.5302Z" fill="white"/>
<path d="M42.8784 59.3354L44.1894 59.2207L46.948 67.2991L48.2479 58.8657L49.6147 58.7461L52.3733 66.8244L53.6732 58.391L54.9981 58.2751L53.2564 68.4054L51.7502 68.5372L49.1436 61.2326L47.8451 68.8789L46.3528 69.0094L42.8784 59.3354ZM55.7967 64.459C55.5917 62.116 56.7837 60.4799 58.8478 60.2993C60.4796 60.1565 62.024 61.1035 62.3649 63.7157L62.4252 64.2445L57.0697 64.713C57.3131 66.2095 58.157 67.0211 59.4262 66.91C60.2072 66.8417 60.8921 66.318 61.1585 65.5077L62.4223 65.4955C62.1119 66.928 60.9324 67.9025 59.5238 68.0258C57.4597 68.2064 56.0017 66.8021 55.7967 64.459ZM57.0073 63.6785L61.0519 63.3247C60.7212 61.7937 59.838 61.3369 58.9454 61.415C57.7739 61.5175 57.0879 62.3505 57.0073 63.6785ZM63.3547 57.544L64.5262 57.4415L64.8313 60.9282C65.1747 60.1955 66.0143 59.6723 67.0046 59.5857C68.9292 59.4173 70.2592 60.8046 70.4666 63.1756C70.674 65.5465 69.6052 67.1438 67.6805 67.3121C66.6485 67.4024 65.7144 67.0063 65.2301 66.2898L65.281 67.3534L64.221 67.4462L63.3547 57.544ZM64.9577 63.6575C65.1053 65.3451 66.0348 66.3318 67.3458 66.2171C68.6429 66.1037 69.3869 64.9705 69.2393 63.283C69.0892 61.5675 68.1572 60.5529 66.8602 60.6663C65.5492 60.781 64.8076 61.9421 64.9577 63.6575ZM78.4124 56.2266C81.4528 55.9606 83.3244 57.5957 83.6026 60.7756C83.8796 63.9415 82.3609 65.8591 79.3624 66.1215L76.2104 66.3972L75.3441 56.4951L78.4124 56.2266ZM77.3074 65.1208L79.1762 64.9573C81.5053 64.7535 82.567 63.3958 82.3474 60.8854C82.1253 58.3471 80.844 57.1944 78.5149 57.3981L76.646 57.5616L77.3074 65.1208ZM85.0522 61.8995C84.8472 59.5565 86.0391 57.9203 88.1032 57.7398C89.735 57.597 91.2794 58.544 91.6204 61.1562L91.6807 61.685L86.3251 62.1535C86.5685 63.65 87.4124 64.4615 88.6816 64.3505C89.4626 64.2822 90.1476 63.7585 90.414 62.9482L91.6777 62.936C91.3674 64.3685 90.1878 65.343 88.7792 65.4662C86.7151 65.6468 85.2572 64.2426 85.0522 61.8995ZM86.2627 61.119L90.3073 60.7652C89.9766 59.2342 89.0934 58.7774 88.2008 58.8555C87.0293 58.958 86.3433 59.791 86.2627 61.119ZM98.801 56.9725L96.7559 64.5997L95.2776 64.7291L91.9392 57.5728L93.1944 57.463L95.9094 63.4371L97.5457 57.0823L98.801 56.9725ZM99.7344 60.615C99.5294 58.2719 100.721 56.6358 102.785 56.4552C104.417 56.3125 105.962 57.2595 106.303 59.8717L106.363 60.4005L101.007 60.869C101.251 62.3655 102.095 63.177 103.364 63.066C104.145 62.9977 104.83 62.474 105.096 61.6637L106.36 61.6515C106.05 63.084 104.87 64.0585 103.461 64.1817C101.397 64.3623 99.9393 62.958 99.7344 60.615ZM100.945 59.8345L104.989 59.4806C104.659 57.9496 103.776 57.4929 102.883 57.571C101.712 57.6735 101.025 58.5064 100.945 59.8345ZM107.565 53.6761L108.736 53.5736L109.472 61.9835C109.499 62.2903 109.666 62.4303 109.973 62.4035L110.614 62.3473L110.704 63.3794L109.882 63.4514C109.017 63.527 108.38 62.9925 108.305 62.1418L107.565 53.6761ZM115.188 63.1558C113.138 63.3351 111.667 61.946 111.461 59.589C111.255 57.232 112.462 55.6086 114.512 55.4293C116.548 55.2511 118.019 56.6402 118.225 58.9972C118.431 61.3542 117.224 62.9776 115.188 63.1558ZM112.688 59.4817C112.838 61.1971 113.724 62.1596 115.09 62.04C116.443 61.9217 117.148 60.8201 116.998 59.1046C116.848 57.3892 115.963 56.4267 114.61 56.545C113.243 56.6646 112.538 57.7662 112.688 59.4817ZM120.436 64.636L119.606 55.1522L120.666 55.0595L120.805 56.1576C121.137 55.2994 121.893 54.7835 122.967 54.6896C125.17 54.4968 126.321 56.2372 126.499 58.2734C126.677 60.3096 125.846 62.2233 123.643 62.4161C122.611 62.5064 121.822 62.1678 121.337 61.4373L121.608 64.5335L120.436 64.636ZM120.976 58.7566C121.097 60.1373 121.844 61.4492 123.35 61.3174C124.87 61.1844 125.367 59.7918 125.243 58.3832C125.12 56.9746 124.389 55.6894 122.869 55.8224C121.363 55.9542 120.855 57.3759 120.976 58.7566ZM127.805 58.1591C127.6 55.8161 128.792 54.18 130.856 53.9994C132.488 53.8566 134.032 54.8036 134.373 57.4158L134.433 57.9446L129.078 58.4131C129.321 59.9096 130.165 60.7212 131.434 60.6101C132.215 60.5418 132.9 60.0181 133.167 59.2078L134.43 59.1956C134.12 60.6281 132.941 61.6026 131.532 61.7259C129.468 61.9065 128.01 60.5022 127.805 58.1591ZM129.015 57.3787L133.06 57.0248C132.729 55.4938 131.846 55.037 130.954 55.1151C129.782 55.2176 129.096 56.0506 129.015 57.3787ZM135.787 53.7366L136.819 53.6463L136.979 54.9955C137.15 54.0531 137.656 53.5731 138.618 53.4889L139.343 53.4255L139.434 54.4575L138.708 54.521C137.579 54.6198 137.108 55.3496 137.219 56.6187L137.605 61.0259L136.433 61.1284L135.787 53.7366Z" fill="#E0E0E0"/>
</svg>
