<svg width="1440" height="336" viewBox="0 0 1440 336" fill="none" xmlns="http://www.w3.org/2000/svg">
<g opacity="0.7">
<mask id="mask0_279_46" style="mask-type:alpha" maskUnits="userSpaceOnUse" x="0" y="0" width="1440" height="336">
<rect width="1440" height="336" fill="url(#paint0_radial_279_46)"/>
</mask>
<g mask="url(#mask0_279_46)">
<rect x="-33.9307" y="0.530191" width="83.7702" height="83.7702" stroke="#090C25" stroke-opacity="0.8" stroke-width="1.06038"/>
<rect x="49.8427" y="0.530191" width="83.7702" height="83.7702" stroke="#090C25" stroke-opacity="0.8" stroke-width="1.06038"/>
<rect x="133.612" y="0.530191" width="83.7702" height="83.7702" stroke="#090C25" stroke-opacity="0.8" stroke-width="1.06038"/>
<rect x="217.382" y="0.530191" width="83.7702" height="83.7702" stroke="#090C25" stroke-opacity="0.8" stroke-width="1.06038"/>
<rect x="300.621" width="84.8306" height="84.8306" fill="#090C25" fill-opacity="0.2"/>
<rect x="301.151" y="0.530191" width="83.7702" height="83.7702" stroke="#090C25" stroke-opacity="0.8" stroke-width="1.06038"/>
<rect x="384.921" y="0.530191" width="83.7702" height="83.7702" stroke="#090C25" stroke-opacity="0.8" stroke-width="1.06038"/>
<rect x="468.69" y="0.530191" width="83.7702" height="83.7702" stroke="#090C25" stroke-opacity="0.8" stroke-width="1.06038"/>
<rect x="552.464" y="0.530191" width="83.7702" height="83.7702" stroke="#090C25" stroke-opacity="0.8" stroke-width="1.06038"/>
<rect x="636.233" y="0.530191" width="83.7702" height="83.7702" stroke="#090C25" stroke-opacity="0.8" stroke-width="1.06038"/>
<rect x="720.003" y="0.530191" width="83.7702" height="83.7702" stroke="#090C25" stroke-opacity="0.8" stroke-width="1.06038"/>
<rect x="803.772" y="0.530191" width="83.7702" height="83.7702" stroke="#090C25" stroke-opacity="0.8" stroke-width="1.06038"/>
<rect x="887.542" y="0.530191" width="83.7702" height="83.7702" stroke="#090C25" stroke-opacity="0.8" stroke-width="1.06038"/>
<rect x="971.315" y="0.530191" width="83.7702" height="83.7702" stroke="#090C25" stroke-opacity="0.8" stroke-width="1.06038"/>
<rect x="1055.08" y="0.530191" width="83.7702" height="83.7702" stroke="#090C25" stroke-opacity="0.8" stroke-width="1.06038"/>
<rect x="1138.85" y="0.530191" width="83.7702" height="83.7702" stroke="#090C25" stroke-opacity="0.8" stroke-width="1.06038"/>
<rect x="1222.62" y="0.530191" width="83.7702" height="83.7702" stroke="#090C25" stroke-opacity="0.8" stroke-width="1.06038"/>
<rect x="1306.39" y="0.530191" width="83.7702" height="83.7702" stroke="#090C25" stroke-opacity="0.8" stroke-width="1.06038"/>
<rect x="1390.16" y="0.530191" width="83.7702" height="83.7702" stroke="#090C25" stroke-opacity="0.8" stroke-width="1.06038"/>
<rect x="-33.9307" y="84.3007" width="83.7702" height="83.7702" stroke="#090C25" stroke-opacity="0.8" stroke-width="1.06038"/>
<rect x="49.8427" y="84.3007" width="83.7702" height="83.7702" stroke="#090C25" stroke-opacity="0.8" stroke-width="1.06038"/>
<rect x="133.612" y="84.3007" width="83.7702" height="83.7702" stroke="#090C25" stroke-opacity="0.8" stroke-width="1.06038"/>
<rect x="217.382" y="84.3007" width="83.7702" height="83.7702" stroke="#090C25" stroke-opacity="0.8" stroke-width="1.06038"/>
<rect x="301.151" y="84.3007" width="83.7702" height="83.7702" stroke="#090C25" stroke-opacity="0.8" stroke-width="1.06038"/>
<rect x="384.921" y="84.3007" width="83.7702" height="83.7702" stroke="#090C25" stroke-opacity="0.8" stroke-width="1.06038"/>
<rect x="468.69" y="84.3007" width="83.7702" height="83.7702" stroke="#090C25" stroke-opacity="0.8" stroke-width="1.06038"/>
<rect x="552.464" y="84.3007" width="83.7702" height="83.7702" stroke="#090C25" stroke-opacity="0.8" stroke-width="1.06038"/>
<rect x="636.233" y="84.3007" width="83.7702" height="83.7702" stroke="#090C25" stroke-opacity="0.8" stroke-width="1.06038"/>
<rect x="720.003" y="84.3007" width="83.7702" height="83.7702" stroke="#090C25" stroke-opacity="0.8" stroke-width="1.06038"/>
<rect x="803.772" y="84.3007" width="83.7702" height="83.7702" stroke="#090C25" stroke-opacity="0.8" stroke-width="1.06038"/>
<rect x="887.012" y="83.7705" width="84.8306" height="84.8306" fill="#090C25" fill-opacity="0.2"/>
<rect x="887.542" y="84.3007" width="83.7702" height="83.7702" stroke="#090C25" stroke-opacity="0.8" stroke-width="1.06038"/>
<rect x="971.315" y="84.3007" width="83.7702" height="83.7702" stroke="#090C25" stroke-opacity="0.8" stroke-width="1.06038"/>
<rect x="1055.08" y="84.3007" width="83.7702" height="83.7702" stroke="#090C25" stroke-opacity="0.8" stroke-width="1.06038"/>
<rect x="1138.85" y="84.3007" width="83.7702" height="83.7702" stroke="#090C25" stroke-opacity="0.8" stroke-width="1.06038"/>
<rect x="1222.62" y="84.3007" width="83.7702" height="83.7702" stroke="#090C25" stroke-opacity="0.8" stroke-width="1.06038"/>
<rect x="1306.39" y="84.3007" width="83.7702" height="83.7702" stroke="#090C25" stroke-opacity="0.8" stroke-width="1.06038"/>
<rect x="1390.16" y="84.3007" width="83.7702" height="83.7702" stroke="#090C25" stroke-opacity="0.8" stroke-width="1.06038"/>
<rect x="-34.4609" y="167.541" width="84.8306" height="84.8306" fill="#090C25" fill-opacity="0.2"/>
<rect x="-33.9307" y="168.071" width="83.7702" height="83.7702" stroke="#090C25" stroke-opacity="0.8" stroke-width="1.06038"/>
<rect x="49.8427" y="168.071" width="83.7702" height="83.7702" stroke="#090C25" stroke-opacity="0.8" stroke-width="1.06038"/>
<rect x="133.082" y="167.541" width="84.8306" height="84.8306" fill="#090C25" fill-opacity="0.2"/>
<rect x="133.612" y="168.071" width="83.7702" height="83.7702" stroke="#090C25" stroke-opacity="0.8" stroke-width="1.06038"/>
<rect x="217.382" y="168.071" width="83.7702" height="83.7702" stroke="#090C25" stroke-opacity="0.8" stroke-width="1.06038"/>
<rect x="301.151" y="168.071" width="83.7702" height="83.7702" stroke="#090C25" stroke-opacity="0.8" stroke-width="1.06038"/>
<rect x="384.391" y="167.541" width="84.8306" height="84.8306" fill="#090C25" fill-opacity="0.2"/>
<rect x="384.921" y="168.071" width="83.7702" height="83.7702" stroke="#090C25" stroke-opacity="0.8" stroke-width="1.06038"/>
<rect x="468.69" y="168.071" width="83.7702" height="83.7702" stroke="#090C25" stroke-opacity="0.8" stroke-width="1.06038"/>
<rect x="552.464" y="168.071" width="83.7702" height="83.7702" stroke="#090C25" stroke-opacity="0.8" stroke-width="1.06038"/>
<rect x="636.233" y="168.071" width="83.7702" height="83.7702" stroke="#090C25" stroke-opacity="0.8" stroke-width="1.06038"/>
<rect x="720.003" y="168.071" width="83.7702" height="83.7702" stroke="#090C25" stroke-opacity="0.8" stroke-width="1.06038"/>
<rect x="803.772" y="168.071" width="83.7702" height="83.7702" stroke="#090C25" stroke-opacity="0.8" stroke-width="1.06038"/>
<rect x="887.542" y="168.071" width="83.7702" height="83.7702" stroke="#090C25" stroke-opacity="0.8" stroke-width="1.06038"/>
<rect x="971.315" y="168.071" width="83.7702" height="83.7702" stroke="#090C25" stroke-opacity="0.8" stroke-width="1.06038"/>
<rect x="1055.08" y="168.071" width="83.7702" height="83.7702" stroke="#090C25" stroke-opacity="0.8" stroke-width="1.06038"/>
<rect x="1138.85" y="168.071" width="83.7702" height="83.7702" stroke="#090C25" stroke-opacity="0.8" stroke-width="1.06038"/>
<rect x="1222.62" y="168.071" width="83.7702" height="83.7702" stroke="#090C25" stroke-opacity="0.8" stroke-width="1.06038"/>
<rect x="1306.39" y="168.071" width="83.7702" height="83.7702" stroke="#090C25" stroke-opacity="0.8" stroke-width="1.06038"/>
<rect x="1390.16" y="168.071" width="83.7702" height="83.7702" stroke="#090C25" stroke-opacity="0.8" stroke-width="1.06038"/>
<rect x="-33.9307" y="251.841" width="83.7702" height="83.7702" stroke="#090C25" stroke-opacity="0.8" stroke-width="1.06038"/>
<rect x="49.8427" y="251.841" width="83.7702" height="83.7702" stroke="#090C25" stroke-opacity="0.8" stroke-width="1.06038"/>
<rect x="133.612" y="251.841" width="83.7702" height="83.7702" stroke="#090C25" stroke-opacity="0.8" stroke-width="1.06038"/>
<rect x="217.382" y="251.841" width="83.7702" height="83.7702" stroke="#090C25" stroke-opacity="0.8" stroke-width="1.06038"/>
<rect x="301.151" y="251.841" width="83.7702" height="83.7702" stroke="#090C25" stroke-opacity="0.8" stroke-width="1.06038"/>
<rect x="384.921" y="251.841" width="83.7702" height="83.7702" stroke="#090C25" stroke-opacity="0.8" stroke-width="1.06038"/>
<rect x="468.69" y="251.841" width="83.7702" height="83.7702" stroke="#090C25" stroke-opacity="0.8" stroke-width="1.06038"/>
<rect x="552.464" y="251.841" width="83.7702" height="83.7702" stroke="#090C25" stroke-opacity="0.8" stroke-width="1.06038"/>
<rect x="636.233" y="251.841" width="83.7702" height="83.7702" stroke="#090C25" stroke-opacity="0.8" stroke-width="1.06038"/>
<rect x="719.473" y="251.311" width="84.8306" height="84.8306" fill="#090C25" fill-opacity="0.2"/>
<rect x="720.003" y="251.841" width="83.7702" height="83.7702" stroke="#090C25" stroke-opacity="0.8" stroke-width="1.06038"/>
<rect x="803.772" y="251.841" width="83.7702" height="83.7702" stroke="#090C25" stroke-opacity="0.8" stroke-width="1.06038"/>
<rect x="887.542" y="251.841" width="83.7702" height="83.7702" stroke="#090C25" stroke-opacity="0.8" stroke-width="1.06038"/>
<rect x="971.315" y="251.841" width="83.7702" height="83.7702" stroke="#090C25" stroke-opacity="0.8" stroke-width="1.06038"/>
<rect x="1055.08" y="251.841" width="83.7702" height="83.7702" stroke="#090C25" stroke-opacity="0.8" stroke-width="1.06038"/>
<rect x="1138.85" y="251.841" width="83.7702" height="83.7702" stroke="#090C25" stroke-opacity="0.8" stroke-width="1.06038"/>
<rect x="1222.62" y="251.841" width="83.7702" height="83.7702" stroke="#090C25" stroke-opacity="0.8" stroke-width="1.06038"/>
<rect x="1305.86" y="251.311" width="84.8306" height="84.8306" fill="#090C25" fill-opacity="0.2"/>
<rect x="1306.39" y="251.841" width="83.7702" height="83.7702" stroke="#090C25" stroke-opacity="0.8" stroke-width="1.06038"/>
<rect x="1390.16" y="251.841" width="83.7702" height="83.7702" stroke="#090C25" stroke-opacity="0.8" stroke-width="1.06038"/>
</g>
</g>
<defs>
<radialGradient id="paint0_radial_279_46" cx="0" cy="0" r="1" gradientUnits="userSpaceOnUse" gradientTransform="translate(720 242.962) rotate(90) scale(278.582 1193.92)">
<stop stop-color="#090C25" stop-opacity="0.15"/>
<stop offset="1" stop-color="#090C25" stop-opacity="0"/>
</radialGradient>
</defs>
</svg>
