<svg width="24" height="24" viewBox="0 0 24 24" fill="none" xmlns="http://www.w3.org/2000/svg">
<circle cx="12" cy="12" r="12" fill="#020611"/>
<path fill-rule="evenodd" clip-rule="evenodd" d="M15.8945 8.21387C16.1103 8.21387 16.2852 8.38876 16.2852 8.60449C16.2852 8.60449 16.2852 11.7788 16.2852 13.8127C16.2852 14.0284 16.1103 14.2035 15.8945 14.2035C15.6788 14.2035 15.5039 14.0285 15.5039 13.8128C15.5039 12.1471 15.5039 9.54754 15.5039 9.54754L8.87908 16.1724C8.72653 16.3249 8.4792 16.3249 8.32665 16.1724C8.1741 16.0198 8.1741 15.7725 8.32665 15.6199L14.9515 8.99512H10.6862C10.4705 8.99512 10.2956 8.82023 10.2956 8.60449C10.2956 8.38876 10.4705 8.21387 10.6862 8.21387H15.8945Z" fill="white"/>
</svg>
