<svg width="152" height="36" viewBox="0 0 152 36" fill="none" xmlns="http://www.w3.org/2000/svg">
<path d="M133.156 12.1157C134 12.1157 134.694 11.6773 134.787 11.1108L135.62 1.69473C135.62 0.764039 134.53 0 133.159 0C131.789 0 130.7 0.764035 130.7 1.69489L131.532 11.1108C131.624 11.6771 132.318 12.1157 133.159 12.1157H133.156ZM128.067 15.0568C128.49 14.3274 128.458 13.5076 128.012 13.1434L120.273 7.71429C119.468 7.24827 118.262 7.8092 117.577 8.99675C116.89 10.1828 117.012 11.5074 117.814 11.9736L126.384 15.9638C126.92 16.1624 127.65 15.7802 128.07 15.0513L128.067 15.0568ZM138.25 15.0518C138.672 15.7807 139.399 16.163 139.935 15.9643L148.505 11.9741C149.313 11.5081 149.427 10.1833 148.747 8.99726C148.059 7.81089 146.85 7.24878 146.047 7.71479L138.307 13.1439C137.865 13.5076 137.832 14.328 138.253 15.0573L138.25 15.0518ZM133.156 23.8778C134 23.8778 134.694 24.3126 134.787 24.8796L135.62 34.2943C135.62 35.2279 134.53 35.9902 133.159 35.9902C131.789 35.9902 130.7 35.2279 130.7 34.2943L131.532 24.8796C131.624 24.3126 132.318 23.8778 133.159 23.8778H133.156ZM138.25 20.9361C138.672 20.2051 139.399 19.8262 139.935 20.0271L148.505 24.0146C149.313 24.4811 149.427 25.8071 148.747 26.9941C148.059 28.1766 146.85 28.7403 146.047 28.2749L138.307 22.8509C137.865 22.4843 137.832 21.6633 138.253 20.9346H138.249M128.067 20.9351C128.49 21.6633 128.458 22.4843 128.012 22.8516L120.273 28.2754C119.468 28.7408 118.262 28.1771 117.577 26.9946C116.89 25.8076 117.012 24.4816 117.814 24.0151L126.384 20.0276C126.92 19.8267 127.65 20.2057 128.07 20.9368H128.067" fill="#6F6F6F"/>
<path d="M84.334 22.8317C84.334 23.1207 84.3083 23.4187 84.2291 23.6804C83.9009 24.7675 82.7753 25.6868 81.3672 25.6868C80.1931 25.6868 79.2605 25.0198 79.2605 23.6112C79.2605 21.4553 81.6335 20.86 84.3346 20.8749L84.334 22.8316V22.8317ZM88.5708 19.0747C88.5708 15.5198 87.0518 12.3917 81.9192 12.3917C79.2846 12.3917 77.1936 13.1317 76.0522 13.7913L76.8881 16.6492C77.9312 15.9907 79.5937 15.4455 81.1669 15.4455C83.7703 15.4383 84.1967 16.9198 84.1967 17.868V18.0924C78.5217 18.084 74.9344 20.0491 74.9344 24.052C74.9344 26.498 76.7615 28.789 79.9376 28.789C81.8892 28.789 83.5237 28.01 84.502 26.7609H84.5986C84.5986 26.7609 85.2458 29.4727 88.8192 28.4352C88.6328 27.3074 88.5714 26.1036 88.5714 24.656L88.5709 19.0747M0.148438 7.55048C0.148438 7.55048 3.85691 22.7462 4.44909 25.2124C5.13988 28.0909 6.38488 29.1507 9.97273 28.4352L12.2882 19.0144C12.8753 16.6732 13.2683 15.004 13.6466 12.6249H13.7124C13.978 15.0292 14.3549 16.6805 14.838 19.0221C14.838 19.0221 15.7801 23.2993 16.2634 25.545C16.7473 27.7901 18.0939 29.2059 21.6087 28.4352L27.1263 7.5498H22.6727L20.7882 16.58C20.2815 19.2074 19.8222 21.2628 19.4678 23.666H19.4048C19.0827 21.284 18.6726 19.3124 18.1581 16.7518L16.1976 7.5498H11.5566L9.45833 16.5198C8.86447 19.2464 8.30757 21.4471 7.95478 23.7703H7.89061C7.52842 21.5827 7.04628 18.8157 6.52449 16.1776C6.52449 16.1776 5.27881 9.76145 4.84068 7.5498L0.148438 7.55048ZM35.5505 22.8317C35.5505 23.1207 35.5248 23.4187 35.4445 23.6804C35.1169 24.7675 33.9907 25.6868 32.5826 25.6868C31.4083 25.6868 30.4771 25.0198 30.4771 23.6112C30.4771 21.4553 32.8493 20.86 35.551 20.8749L35.5505 22.8316V22.8317ZM39.7868 19.0747C39.7868 15.5198 38.2678 12.3917 33.1363 12.3917C30.5009 12.3917 28.4082 13.1317 27.2676 13.7913L28.1025 16.6492C29.1454 15.9907 30.8079 15.4455 32.3816 15.4455C34.9869 15.4383 35.4133 16.9198 35.4133 17.868V18.0924C29.7359 18.084 26.1502 20.0491 26.1502 24.052C26.1502 26.498 27.9763 28.789 31.1501 28.789C33.1043 28.789 34.7379 28.01 35.7173 26.7609H35.8127C35.8127 26.7609 36.4619 29.4727 40.0344 28.4352C39.8476 27.3074 39.7868 26.1036 39.7868 24.656V19.0747ZM46.857 24.0018V7.55048H42.6152V28.4358H46.857V24.0018ZM102.348 7.55048V22.9572C102.348 25.0823 102.749 26.5696 103.603 27.4798C104.352 28.2756 105.582 28.7906 107.057 28.7906C108.311 28.7906 109.545 28.5512 110.127 28.3354L110.072 25.0215C109.639 25.1274 109.141 25.213 108.461 25.213C107.015 25.213 106.532 24.2871 106.532 22.3802V16.4852H110.226V12.4887H106.532V7.55048H102.348ZM91.3993 12.746V28.4358H95.775V20.4024C95.775 19.9681 95.8012 19.5898 95.87 19.2437C96.1937 17.5601 97.4805 16.4852 99.3289 16.4852C99.8356 16.4852 100.198 16.5403 100.591 16.5961V12.4887C100.261 12.423 100.038 12.3922 99.6275 12.3922C97.9946 12.3922 96.1367 13.4459 95.3571 15.7061H95.2388V12.746H91.3993ZM49.8271 12.746V28.4358H54.0903V19.2353C54.0903 18.8036 54.1411 18.347 54.2906 17.9512C54.6439 17.0248 55.506 15.9399 56.8817 15.9399C58.6028 15.9399 59.4065 17.3943 59.4065 19.4932V28.4347H63.6663V19.1221C63.6663 18.7102 63.7226 18.2136 63.8444 17.8504C64.1942 16.796 65.1228 15.9388 66.4019 15.9388C68.1459 15.9388 68.983 17.3675 68.983 19.8381V28.4342H73.2457V19.1928C73.2457 14.3198 70.7711 12.3907 67.9774 12.3907C66.7413 12.3907 65.7646 12.7003 64.8813 13.2416C64.1396 13.6986 63.4743 14.346 62.8939 15.1971H62.8309C62.1572 13.5062 60.5722 12.3916 58.5067 12.3916C55.8533 12.3916 54.6607 13.7367 53.9373 14.8774H53.8738V12.7455H49.8271" fill="#6F6F6F"/>
<path d="M150.644 27.6767H150.709C150.794 27.6767 150.849 27.6414 150.849 27.589C150.849 27.5293 150.798 27.4969 150.718 27.4969C150.691 27.4969 150.663 27.5024 150.645 27.5024V27.6782V27.6766L150.644 27.6767ZM150.635 28.1H150.408V27.3612C150.459 27.3511 150.579 27.3331 150.733 27.3331C150.9 27.3331 150.975 27.3567 151.029 27.3936C151.076 27.4259 151.109 27.4811 151.109 27.5555C151.109 27.6313 151.039 27.6956 150.937 27.7236V27.733C151.02 27.7554 151.066 27.8163 151.09 27.923C151.113 28.0296 151.127 28.0731 151.142 28.1005H150.885C150.862 28.0731 150.849 28.0077 150.834 27.9425C150.819 27.8677 150.784 27.8302 150.708 27.8302H150.634L150.635 28.1ZM150.728 27.1205C150.403 27.1205 150.157 27.3857 150.157 27.724C150.157 28.0535 150.403 28.3223 150.737 28.3223C151.072 28.3278 151.319 28.0536 151.319 27.7186C151.319 27.3851 151.072 27.1205 150.733 27.1205H150.728ZM150.743 26.9199C151.197 26.9199 151.559 27.2773 151.559 27.7184C151.559 28.1647 151.197 28.5226 150.737 28.5226C150.277 28.5226 149.91 28.1642 149.91 27.7186C149.91 27.2773 150.277 26.9201 150.737 26.9201H150.742" fill="#6F6F6F"/>
</svg>
